<?xml version="1.0" encoding="utf-8"?>
<!-- Generator: Adobe Illustrator 23.0.0, SVG Export Plug-In . SVG Version: 6.00 Build 0)  -->
<svg version="1.1" id="Layer_1" xmlns="http://www.w3.org/2000/svg" xmlns:xlink="http://www.w3.org/1999/xlink" x="0px" y="0px"
	 viewBox="0 0 66 70" style="enable-background:new 0 0 66 70;" xml:space="preserve">
<style type="text/css">
	.st0{opacity:0.1;}
	.st1{fill-rule:evenodd;clip-rule:evenodd;fill:#981DFF;}
	.st2{fill:url(#SVGID_1_);}
	.st3{fill:url(#SVGID_2_);}
	.st4{fill:url(#SVGID_3_);}
	.st5{fill:url(#SVGID_4_);}
	.st6{fill:url(#SVGID_5_);}
	.st7{fill:url(#SVGID_6_);}
</style>
<g class="st0">
	<circle id="Oval-2_2_" class="st1" cx="31" cy="34.2" r="31"/>
	<g>
		<circle id="path-4_2_" class="st1" cx="52.7" cy="9.8" r="9.2"/>
	</g>
	<g>
		<g>
			<circle class="st1" cx="52.7" cy="9.8" r="9.2"/>
		</g>
		<circle id="Oval-3-Copy-4_2_" class="st1" cx="64" cy="19.1" r="2"/>
		<circle id="Oval-3-Copy-5_2_" class="st1" cx="42.3" cy="1.5" r="1.5"/>
	</g>
	<g>
		<g>
			<circle class="st1" cx="18.8" cy="60.8" r="9.2"/>
		</g>
	</g>
</g>
<g>
	<g>
		<linearGradient id="SVGID_1_" gradientUnits="userSpaceOnUse" x1="18.1893" y1="34.9571" x2="47.0935" y2="34.9571">
			<stop  offset="0" style="stop-color:#9600DA"/>
			<stop  offset="1" style="stop-color:#002BCA"/>
		</linearGradient>
		<path class="st2" d="M47.2,51C47.1,51,47.1,50.9,47.2,51l-24.2-3.8c-0.3-0.1-0.6-0.3-0.6-0.6V23.3c0-0.3,0.3-0.5,0.6-0.6L47.1,19
			c0,0,0,0,0.1,0c0.3,0,0.5,0.2,0.5,0.6v30.8c0,0.2-0.1,0.3-0.1,0.4C47.4,50.9,47.3,51,47.2,51L47.2,51z M23.5,23.6v22.7l23,3.1v-29
			L23.5,23.6z"/>
		<linearGradient id="SVGID_2_" gradientUnits="userSpaceOnUse" x1="18.1893" y1="33.6359" x2="47.0935" y2="33.6359">
			<stop  offset="0" style="stop-color:#9600DA"/>
			<stop  offset="1" style="stop-color:#002BCA"/>
		</linearGradient>
		<path class="st3" d="M26.6,34.2c-0.3,0-0.6-0.2-0.6-0.4c0-0.3,0.3-0.5,0.6-0.5c0,0,5.3-0.2,5.3-0.2c0.3,0,0.6,0.2,0.6,0.5
			c0,0.3-0.3,0.6-0.6,0.6L26.6,34.2z"/>
		<linearGradient id="SVGID_3_" gradientUnits="userSpaceOnUse" x1="18.1893" y1="33.5071" x2="47.0935" y2="33.5071">
			<stop  offset="0" style="stop-color:#9600DA"/>
			<stop  offset="1" style="stop-color:#002BCA"/>
		</linearGradient>
		<path class="st4" d="M35.4,34.1c-0.1,0-0.3-0.1-0.4-0.2c-0.1-0.1-0.2-0.2-0.2-0.4c0-0.1,0.1-0.3,0.2-0.4c0.1-0.1,0.3-0.2,0.4-0.2
			c0.2,0,0.3,0,0.4,0.1c0.1,0.1,0.2,0.3,0.2,0.4c0,0.2-0.1,0.3-0.2,0.4C35.7,34,35.6,34.1,35.4,34.1L35.4,34.1z"/>
		<linearGradient id="SVGID_4_" gradientUnits="userSpaceOnUse" x1="18.1893" y1="37.1918" x2="47.0935" y2="37.1918">
			<stop  offset="0" style="stop-color:#9600DA"/>
			<stop  offset="1" style="stop-color:#002BCA"/>
		</linearGradient>
		<path class="st5" d="M30.2,37.4c-0.3,0-0.6-0.3-0.6-0.5c0-0.3,0.3-0.5,0.6-0.5l12.6,0.2c0.3,0,0.6,0.3,0.6,0.7
			c0,0.2-0.1,0.4-0.2,0.5C43,37.9,42.9,38,42.8,38L30.2,37.4z"/>
		<linearGradient id="SVGID_5_" gradientUnits="userSpaceOnUse" x1="18.1893" y1="36.8378" x2="47.0935" y2="36.8378">
			<stop  offset="0" style="stop-color:#9600DA"/>
			<stop  offset="1" style="stop-color:#002BCA"/>
		</linearGradient>
		<path class="st6" d="M26.7,37.3c-0.2,0-0.3-0.1-0.4-0.2c-0.1-0.1-0.1-0.2-0.1-0.3c0-0.1,0.1-0.2,0.1-0.3c0.1-0.1,0.2-0.1,0.4-0.1
			c0.2,0,0.3,0.1,0.4,0.1c0.1,0.1,0.1,0.2,0.1,0.3c0,0.1-0.1,0.2-0.1,0.3C27,37.3,26.8,37.3,26.7,37.3L26.7,37.3z"/>
	</g>
	<linearGradient id="SVGID_6_" gradientUnits="userSpaceOnUse" x1="18.1893" y1="35.0651" x2="47.0935" y2="35.0651">
		<stop  offset="0" style="stop-color:#9600DA"/>
		<stop  offset="1" style="stop-color:#002BCA"/>
	</linearGradient>
	<path class="st7" d="M19.3,45L19.2,45c-0.3-0.2-0.5-0.5-0.5-0.8V26c0-0.3,0.2-0.6,0.5-0.8l0.2-0.1c0.2-0.1,0.5,0,0.5,0.3v19.3
		C19.8,45,19.5,45.1,19.3,45z"/>
</g>
</svg>
