<?xml version="1.0" encoding="utf-8"?>
<!-- Generator: Adobe Illustrator 23.0.0, SVG Export Plug-In . SVG Version: 6.00 Build 0)  -->
<svg version="1.1" id="Layer_1" xmlns="http://www.w3.org/2000/svg" xmlns:xlink="http://www.w3.org/1999/xlink" x="0px" y="0px"
	 viewBox="0 0 66 70" style="enable-background:new 0 0 66 70;" xml:space="preserve">
<style type="text/css">
	.st0{opacity:0.1;}
	.st1{fill-rule:evenodd;clip-rule:evenodd;fill:#981DFF;}
	.st2{fill:url(#SVGID_1_);}
	.st3{fill:url(#SVGID_2_);}
	.st4{fill:url(#SVGID_3_);}
	.st5{fill:url(#SVGID_4_);}
	.st6{fill:url(#SVGID_5_);}
	.st7{fill:url(#SVGID_6_);}
	.st8{fill:url(#SVGID_7_);}
	.st9{fill:url(#SVGID_8_);}
	.st10{fill:url(#SVGID_9_);}
	.st11{fill:url(#SVGID_10_);}
	.st12{fill:url(#SVGID_11_);}
	.st13{fill:url(#SVGID_12_);}
</style>
<g class="st0">
	<circle id="Oval-2_2_" class="st1" cx="31" cy="34.2" r="31"/>
	<g>
		<circle id="path-4_2_" class="st1" cx="52.7" cy="9.8" r="9.2"/>
	</g>
	<g>
		<g>
			<circle class="st1" cx="52.7" cy="9.8" r="9.2"/>
		</g>
		<circle id="Oval-3-Copy-4_2_" class="st1" cx="64" cy="19.1" r="2"/>
		<circle id="Oval-3-Copy-5_2_" class="st1" cx="42.3" cy="1.5" r="1.5"/>
	</g>
	<g>
		<g>
			<circle class="st1" cx="18.8" cy="60.8" r="9.2"/>
		</g>
	</g>
</g>
<g>
	<g>
		<g>
			<g>
				<linearGradient id="SVGID_1_" gradientUnits="userSpaceOnUse" x1="16.6858" y1="30.4595" x2="60.2839" y2="30.4595">
					<stop  offset="0" style="stop-color:#9600DA"/>
					<stop  offset="1" style="stop-color:#002BCA"/>
				</linearGradient>
				<path class="st2" d="M21.3,29.8h-4.1c-0.4,0-0.6,0.3-0.6,0.6s0.3,0.6,0.6,0.6h4.1c0.4,0,0.6-0.3,0.6-0.6S21.7,29.8,21.3,29.8z"
					/>
			</g>
		</g>
	</g>
	<g>
		<g>
			<g>
				<linearGradient id="SVGID_2_" gradientUnits="userSpaceOnUse" x1="16.6858" y1="45.1425" x2="60.2839" y2="45.1425">
					<stop  offset="0" style="stop-color:#9600DA"/>
					<stop  offset="1" style="stop-color:#002BCA"/>
				</linearGradient>
				<path class="st3" d="M18.4,44.6h-4.6c-0.3,0-0.5,0.2-0.5,0.5c0,0.3,0.2,0.5,0.5,0.5h4.6c0.3,0,0.5-0.2,0.5-0.5
					C18.9,44.8,18.7,44.6,18.4,44.6z"/>
			</g>
		</g>
		<g>
			<g>
				<linearGradient id="SVGID_3_" gradientUnits="userSpaceOnUse" x1="16.6858" y1="45.1425" x2="60.2839" y2="45.1425">
					<stop  offset="0" style="stop-color:#9600DA"/>
					<stop  offset="1" style="stop-color:#002BCA"/>
				</linearGradient>
				<path class="st4" d="M16.6,47.4v-4.6c0-0.3-0.2-0.5-0.5-0.5c-0.3,0-0.5,0.2-0.5,0.5v4.6c0,0.3,0.2,0.5,0.5,0.5
					C16.4,48,16.6,47.7,16.6,47.4z"/>
			</g>
		</g>
	</g>
	<linearGradient id="SVGID_4_" gradientUnits="userSpaceOnUse" x1="16.6858" y1="30.2826" x2="60.2839" y2="30.2826">
		<stop  offset="0" style="stop-color:#9600DA"/>
		<stop  offset="1" style="stop-color:#002BCA"/>
	</linearGradient>
	<path class="st5" d="M24.6,41h26.5c0.4,0,0.6-0.3,0.6-0.6v-20c0-0.4-0.3-0.6-0.6-0.6H24.6c-0.4,0-0.6,0.3-0.6,0.6v20
		C23.8,40.7,24.2,41,24.6,41z M25.2,20.9h25.2v18.7H25.2V20.9z"/>
	<linearGradient id="SVGID_5_" gradientUnits="userSpaceOnUse" x1="16.6858" y1="27.7469" x2="60.2839" y2="27.7469">
		<stop  offset="0" style="stop-color:#9600DA"/>
		<stop  offset="1" style="stop-color:#002BCA"/>
	</linearGradient>
	<path class="st6" d="M30.3,28.4h5c0.5,0,0.8-0.3,0.8-0.6c0-0.4-0.4-0.6-0.8-0.6h-5c-0.5,0-0.8,0.3-0.8,0.6
		C29.5,28.1,29.9,28.4,30.3,28.4z"/>
	<linearGradient id="SVGID_6_" gradientUnits="userSpaceOnUse" x1="16.6858" y1="30.43" x2="60.2839" y2="30.43">
		<stop  offset="0" style="stop-color:#9600DA"/>
		<stop  offset="1" style="stop-color:#002BCA"/>
	</linearGradient>
	<path class="st7" d="M43.7,29.8H32.9c-0.4,0-0.6,0.3-0.6,0.6s0.3,0.7,0.6,0.7h10.8c0.4,0,0.6-0.3,0.6-0.6S44,29.8,43.7,29.8z"/>
	<linearGradient id="SVGID_7_" gradientUnits="userSpaceOnUse" x1="16.6858" y1="30.4005" x2="60.2839" y2="30.4005">
		<stop  offset="0" style="stop-color:#9600DA"/>
		<stop  offset="1" style="stop-color:#002BCA"/>
	</linearGradient>
	<path class="st8" d="M29.7,29.9c-0.1,0.1-0.2,0.3-0.2,0.5c0,0.2,0.1,0.4,0.2,0.5S30,31,30.2,31c0.2,0,0.4-0.1,0.5-0.2
		c0.1-0.1,0.2-0.3,0.2-0.5c0-0.2-0.1-0.4-0.2-0.5C30.5,29.7,30,29.7,29.7,29.9z"/>
	<linearGradient id="SVGID_8_" gradientUnits="userSpaceOnUse" x1="16.6858" y1="33.4079" x2="60.2839" y2="33.4079">
		<stop  offset="0" style="stop-color:#9600DA"/>
		<stop  offset="1" style="stop-color:#002BCA"/>
	</linearGradient>
	<path class="st9" d="M43.7,32.8H32.9c-0.4,0-0.6,0.3-0.6,0.6c0,0.4,0.3,0.6,0.6,0.6h10.8c0.4,0,0.6-0.3,0.6-0.6
		C44.3,33.1,44,32.8,43.7,32.8z"/>
	<linearGradient id="SVGID_9_" gradientUnits="userSpaceOnUse" x1="16.6858" y1="33.4079" x2="60.2839" y2="33.4079">
		<stop  offset="0" style="stop-color:#9600DA"/>
		<stop  offset="1" style="stop-color:#002BCA"/>
	</linearGradient>
	<path class="st10" d="M29.7,32.9c-0.1,0.1-0.2,0.3-0.2,0.5s0.1,0.4,0.2,0.5s0.3,0.2,0.5,0.2c0.2,0,0.4-0.1,0.5-0.2
		c0.1-0.1,0.2-0.3,0.2-0.5s-0.1-0.4-0.2-0.5C30.5,32.7,30,32.7,29.7,32.9z"/>
	<g>
		<linearGradient id="SVGID_10_" gradientUnits="userSpaceOnUse" x1="16.6858" y1="45.0246" x2="60.2839" y2="45.0246">
			<stop  offset="0" style="stop-color:#9600DA"/>
			<stop  offset="1" style="stop-color:#002BCA"/>
		</linearGradient>
		<path class="st11" d="M22,50.4h24.2c0.4,0,0.6-0.3,0.6-0.6v-9.4c0-0.4-0.3-0.6-0.6-0.6H22c-0.4,0-0.6,0.3-0.6,0.6v9.4
			C21.3,50.1,21.6,50.4,22,50.4z M22.7,41h22.8V49H22.7V41z"/>
		<linearGradient id="SVGID_11_" gradientUnits="userSpaceOnUse" x1="16.6858" y1="45.1425" x2="60.2839" y2="45.1425">
			<stop  offset="0" style="stop-color:#9600DA"/>
			<stop  offset="1" style="stop-color:#002BCA"/>
		</linearGradient>
		<path class="st12" d="M40.5,44.5H29.7c-0.4,0-0.6,0.3-0.6,0.6c0,0.4,0.3,0.6,0.6,0.6h10.8c0.4,0,0.6-0.3,0.6-0.6
			C41.2,44.8,40.9,44.5,40.5,44.5z"/>
		<linearGradient id="SVGID_12_" gradientUnits="userSpaceOnUse" x1="16.6858" y1="45.1425" x2="60.2839" y2="45.1425">
			<stop  offset="0" style="stop-color:#9600DA"/>
			<stop  offset="1" style="stop-color:#002BCA"/>
		</linearGradient>
		<path class="st13" d="M26.6,44.7c-0.1,0.1-0.2,0.3-0.2,0.5s0.1,0.4,0.2,0.5c0.1,0.1,0.3,0.2,0.5,0.2c0.2,0,0.4-0.1,0.5-0.2
			c0.1-0.1,0.2-0.3,0.2-0.5s-0.1-0.4-0.2-0.5C27.3,44.4,26.8,44.4,26.6,44.7z"/>
	</g>
</g>
</svg>
