<?xml version="1.0" encoding="utf-8"?>
<!-- Generator: Adobe Illustrator 23.0.0, SVG Export Plug-In . SVG Version: 6.00 Build 0)  -->
<svg version="1.1" id="Layer_1" xmlns="http://www.w3.org/2000/svg" xmlns:xlink="http://www.w3.org/1999/xlink" x="0px" y="0px"
	 viewBox="0 0 66 70" style="enable-background:new 0 0 66 70;" xml:space="preserve">
<style type="text/css">
	.st0{opacity:0.1;}
	.st1{fill-rule:evenodd;clip-rule:evenodd;fill:#981DFF;}
	.st2{fill:url(#SVGID_1_);}
	.st3{fill:url(#SVGID_2_);}
	.st4{fill:url(#SVGID_3_);}
	.st5{fill:url(#SVGID_4_);}
	.st6{fill:url(#SVGID_5_);}
	.st7{fill:url(#SVGID_6_);}
	.st8{fill:url(#SVGID_7_);}
	.st9{fill:url(#SVGID_8_);}
	.st10{fill:url(#SVGID_9_);}
	.st11{fill:url(#SVGID_10_);}
	.st12{fill:url(#SVGID_11_);}
	.st13{fill:url(#SVGID_12_);}
</style>
<g class="st0">
	<circle id="Oval-2_2_" class="st1" cx="31" cy="34.2" r="31"/>
	<g>
		<circle id="path-4_2_" class="st1" cx="52.7" cy="9.8" r="9.2"/>
	</g>
	<g>
		<g>
			<circle class="st1" cx="52.7" cy="9.8" r="9.2"/>
		</g>
		<circle id="Oval-3-Copy-4_2_" class="st1" cx="64" cy="19.1" r="2"/>
		<circle id="Oval-3-Copy-5_2_" class="st1" cx="42.3" cy="1.5" r="1.5"/>
	</g>
	<g>
		<g>
			<circle class="st1" cx="18.8" cy="60.8" r="9.2"/>
		</g>
	</g>
</g>
<g>
	<linearGradient id="SVGID_1_" gradientUnits="userSpaceOnUse" x1="16.6457" y1="36.1615" x2="49.8267" y2="36.1615">
		<stop  offset="0" style="stop-color:#9600DA"/>
		<stop  offset="1" style="stop-color:#002BCA"/>
	</linearGradient>
	<path class="st2" d="M39,38.8h6.5v-5.3H39V38.8z M44.3,34.7v3h-4.2v-3H44.3z"/>
	<linearGradient id="SVGID_2_" gradientUnits="userSpaceOnUse" x1="16.6457" y1="36.1615" x2="49.8267" y2="36.1615">
		<stop  offset="0" style="stop-color:#9600DA"/>
		<stop  offset="1" style="stop-color:#002BCA"/>
	</linearGradient>
	<path class="st3" d="M20.2,38.8h17.7v-5.3H20.2V38.8z M36.7,34.7v3H21.4v-3H36.7z"/>
	<linearGradient id="SVGID_3_" gradientUnits="userSpaceOnUse" x1="16.6457" y1="35" x2="49.8267" y2="35">
		<stop  offset="0" style="stop-color:#9600DA"/>
		<stop  offset="1" style="stop-color:#002BCA"/>
	</linearGradient>
	<path class="st4" d="M48.7,18.7H17.3c-0.3,0-0.6,0.3-0.6,0.6v31.4c0,0.3,0.3,0.6,0.6,0.6h31.4c0.3,0,0.6-0.3,0.6-0.6V19.3
		C49.3,19,49,18.7,48.7,18.7z M17.9,23v-3.1h30.2V23H17.9z M17.9,50.1V24.2h30.2v25.9H17.9z"/>
	<linearGradient id="SVGID_4_" gradientUnits="userSpaceOnUse" x1="16.6457" y1="21.468" x2="49.8267" y2="21.468">
		<stop  offset="0" style="stop-color:#9600DA"/>
		<stop  offset="1" style="stop-color:#002BCA"/>
	</linearGradient>
	<rect x="18.9" y="20.9" class="st5" width="1.2" height="1.2"/>
	<linearGradient id="SVGID_5_" gradientUnits="userSpaceOnUse" x1="16.6457" y1="21.468" x2="49.8267" y2="21.468">
		<stop  offset="0" style="stop-color:#9600DA"/>
		<stop  offset="1" style="stop-color:#002BCA"/>
	</linearGradient>
	<rect x="21" y="20.9" class="st6" width="1.2" height="1.2"/>
	<g>
		<linearGradient id="SVGID_6_" gradientUnits="userSpaceOnUse" x1="16.4894" y1="36.1611" x2="50.3719" y2="36.1611">
			<stop  offset="0" style="stop-color:#9600DA"/>
			<stop  offset="1" style="stop-color:#002BCA"/>
		</linearGradient>
		<path class="st7" d="M45.6,33.4h-6.7v5.5h6.7V33.4z M44.2,37.5h-4v-2.8h4V37.5z"/>
		<linearGradient id="SVGID_7_" gradientUnits="userSpaceOnUse" x1="16.4894" y1="36.1611" x2="50.3719" y2="36.1611">
			<stop  offset="0" style="stop-color:#9600DA"/>
			<stop  offset="1" style="stop-color:#002BCA"/>
		</linearGradient>
		<path class="st8" d="M37.9,33.4H20.1v5.5h17.9V33.4z M36.6,37.5H21.5v-2.8h15.1V37.5z"/>
		<linearGradient id="SVGID_8_" gradientUnits="userSpaceOnUse" x1="16.4894" y1="34.9995" x2="50.3719" y2="34.9995">
			<stop  offset="0" style="stop-color:#9600DA"/>
			<stop  offset="1" style="stop-color:#002BCA"/>
		</linearGradient>
		<path class="st9" d="M48.7,18.6H17.3c-0.4,0-0.7,0.3-0.7,0.7v31.4c0,0.4,0.3,0.7,0.7,0.7h31.4c0.4,0,0.7-0.3,0.7-0.7V19.3
			C49.4,18.9,49.1,18.6,48.7,18.6z M48,50H18V24.3h30V50z M48,22.9H18V20h30V22.9z"/>
		<linearGradient id="SVGID_9_" gradientUnits="userSpaceOnUse" x1="16.4894" y1="21.468" x2="50.3719" y2="21.468">
			<stop  offset="0" style="stop-color:#9600DA"/>
			<stop  offset="1" style="stop-color:#002BCA"/>
		</linearGradient>
		<rect x="18.8" y="20.8" class="st10" width="1.4" height="1.4"/>
		<linearGradient id="SVGID_10_" gradientUnits="userSpaceOnUse" x1="16.4894" y1="21.468" x2="50.3719" y2="21.468">
			<stop  offset="0" style="stop-color:#9600DA"/>
			<stop  offset="1" style="stop-color:#002BCA"/>
		</linearGradient>
		<rect x="20.9" y="20.8" class="st11" width="1.4" height="1.4"/>
		<linearGradient id="SVGID_11_" gradientUnits="userSpaceOnUse" x1="16.4894" y1="21.468" x2="50.3719" y2="21.468">
			<stop  offset="0" style="stop-color:#9600DA"/>
			<stop  offset="1" style="stop-color:#002BCA"/>
		</linearGradient>
		<rect x="23.1" y="20.8" class="st12" width="1.4" height="1.4"/>
	</g>
	<linearGradient id="SVGID_12_" gradientUnits="userSpaceOnUse" x1="16.6457" y1="21.468" x2="49.8267" y2="21.468">
		<stop  offset="0" style="stop-color:#9600DA"/>
		<stop  offset="1" style="stop-color:#002BCA"/>
	</linearGradient>
	<rect x="23.2" y="20.9" class="st13" width="1.2" height="1.2"/>
</g>
</svg>
