<?xml version="1.0" encoding="utf-8"?>
<!-- Generator: Adobe Illustrator 23.0.0, SVG Export Plug-In . SVG Version: 6.00 Build 0)  -->
<svg version="1.1" id="Layer_1" xmlns="http://www.w3.org/2000/svg" xmlns:xlink="http://www.w3.org/1999/xlink" x="0px" y="0px"
	 viewBox="0 0 66 70" style="enable-background:new 0 0 66 70;" xml:space="preserve">
<style type="text/css">
	.st0{opacity:0.1;}
	.st1{fill-rule:evenodd;clip-rule:evenodd;fill:#981DFF;}
	.st2{fill:url(#SVGID_1_);}
	.st3{fill:url(#SVGID_2_);}
	.st4{fill:url(#SVGID_3_);}
	.st5{fill:url(#SVGID_4_);}
</style>
<g>
	<g class="st0">
		<circle id="Oval-2_2_" class="st1" cx="31" cy="34.2" r="31"/>
		<g>
			<circle id="path-4_2_" class="st1" cx="52.7" cy="9.8" r="9.2"/>
		</g>
		<g>
			<g>
				<circle class="st1" cx="52.7" cy="9.8" r="9.2"/>
			</g>
			<circle id="Oval-3-Copy-4_2_" class="st1" cx="64" cy="19.1" r="2"/>
			<circle id="Oval-3-Copy-5_2_" class="st1" cx="42.3" cy="1.5" r="1.5"/>
		</g>
		<g>
			<g>
				<circle class="st1" cx="18.8" cy="60.8" r="9.2"/>
			</g>
		</g>
	</g>
	<g>
		<linearGradient id="SVGID_1_" gradientUnits="userSpaceOnUse" x1="17.3327" y1="30.2449" x2="54.1754" y2="30.2449">
			<stop  offset="0" style="stop-color:#9600DA"/>
			<stop  offset="1" style="stop-color:#002BCA"/>
		</linearGradient>
		<path class="st2" d="M46.18,24.2c0-1.96-1.54-3.5-3.5-3.5l-21.7,0.1c-1.96,0-3.5,1.54-3.5,3.5v12c0,1.96,1.54,3.5,3.5,3.5h12.2
			l9.4-0.1c1.96,0,3.5-1.54,3.5-3.6l0.1-2.7l0,0v-1.3V24.2z M44.78,34.6v1.5c0,1.2-0.9,2.1-2.1,2.1l-21.6,0.1
			c-1.2,0-2.1-0.9-2.1-2.1v-12c0-1.2,0.9-2.1,2.1-2.1h7.4l14.3-0.1c1.2,0,2.1,0.9,2.1,2.1L44.78,34.6z"/>
		<linearGradient id="SVGID_2_" gradientUnits="userSpaceOnUse" x1="17.8079" y1="43.3678" x2="45.8126" y2="43.3678">
			<stop  offset="0" style="stop-color:#9600DA"/>
			<stop  offset="1" style="stop-color:#002BCA"/>
		</linearGradient>
		<path class="st3" d="M45.12,42.67h-26.6c-0.38,0-0.6,0.26-0.6,0.7c0,0.34,0.23,0.7,0.6,0.7h26.6c0.38,0,0.6-0.26,0.59-0.67
			c0.05-0.15,0.02-0.32-0.08-0.46C45.52,42.77,45.32,42.67,45.12,42.67z"/>
		<linearGradient id="SVGID_3_" gradientUnits="userSpaceOnUse" x1="17.8079" y1="47.0061" x2="45.8126" y2="47.0061">
			<stop  offset="0" style="stop-color:#9600DA"/>
			<stop  offset="1" style="stop-color:#002BCA"/>
		</linearGradient>
		<path class="st4" d="M45.12,46.31h-26.6c-0.38,0-0.6,0.26-0.6,0.7c0,0.34,0.23,0.7,0.6,0.7h26.6c0.38,0,0.6-0.26,0.59-0.67
			c0.05-0.15,0.02-0.32-0.08-0.46C45.52,46.41,45.32,46.31,45.12,46.31z"/>
		<linearGradient id="SVGID_4_" gradientUnits="userSpaceOnUse" x1="25.8728" y1="51.0061" x2="37.7713" y2="51.0061">
			<stop  offset="0" style="stop-color:#9600DA"/>
			<stop  offset="1" style="stop-color:#002BCA"/>
		</linearGradient>
		<path class="st5" d="M37.12,50.31h-10.6c-0.38,0-0.6,0.26-0.6,0.7c0,0.34,0.23,0.7,0.6,0.7h10.6c0.38,0,0.6-0.26,0.59-0.67
			c0.05-0.15,0.02-0.32-0.08-0.46C37.52,50.41,37.32,50.31,37.12,50.31z"/>
	</g>
</g>
</svg>
