<?xml version="1.0" encoding="UTF-8" standalone="no"?><svg xmlns="http://www.w3.org/2000/svg" xmlns:xlink="http://www.w3.org/1999/xlink" id="Layer_1" x="0px" y="0px" viewBox="0 0 66 70" style="enable-background:new 0 0 66 70;" xml:space="preserve">
<style type="text/css">
	.st0{opacity:0.1;}
	.st1{fill-rule:evenodd;clip-rule:evenodd;fill:#981DFF;}
	.st2{fill:url(#SVGID_1_);}
	.st3{fill:url(#SVGID_2_);}
	.st4{fill:url(#SVGID_3_);}
	.st5{fill:url(#SVGID_4_);}
	.st6{fill:url(#SVGID_5_);}
	.st7{fill:url(#SVGID_6_);}
</style>
<g class="st0">
	<circle id="Oval-2_2_" class="st1" cx="31" cy="34.2" r="31"></circle>
	<g>
		<circle id="path-4_2_" class="st1" cx="52.7" cy="9.8" r="9.2"></circle>
	</g>
	<g>
		<g>
			<circle class="st1" cx="52.7" cy="9.8" r="9.2"></circle>
		</g>
		<circle id="Oval-3-Copy-4_2_" class="st1" cx="64" cy="19.1" r="2"></circle>
		<circle id="Oval-3-Copy-5_2_" class="st1" cx="42.3" cy="1.5" r="1.5"></circle>
	</g>
	<g>
		<g>
			<circle class="st1" cx="18.8" cy="60.8" r="9.2"></circle>
		</g>
	</g>
</g>
<g>
	<g>
		<linearGradient id="SVGID_1_" gradientUnits="userSpaceOnUse" x1="12.6496" y1="35.5962" x2="49.0583" y2="35.5962">
			<stop offset="0" style="stop-color:#9600DA"></stop>
			<stop offset="1" style="stop-color:#002BCA"></stop>
		</linearGradient>
		<path class="st2" d="M47.7,38.5c-0.1,0-0.2-0.1-0.4-0.1c-0.2-0.2-0.2-0.5,0-0.7l2.1-2.1l-2.1-2.1c-0.2-0.2-0.2-0.5,0-0.7    c0.2-0.2,0.5-0.2,0.7,0l2.9,2.7l-2.8,2.8C48,38.5,47.9,38.5,47.7,38.5z"></path>
	</g>
	<g>
		<linearGradient id="SVGID_2_" gradientUnits="userSpaceOnUse" x1="12.6496" y1="35.5968" x2="49.0583" y2="35.5968">
			<stop offset="0" style="stop-color:#9600DA"></stop>
			<stop offset="1" style="stop-color:#002BCA"></stop>
		</linearGradient>
		<path class="st3" d="M13.9,38.5c0.1,0,0.2-0.1,0.4-0.1c0.2-0.2,0.2-0.5,0-0.7l-2.1-2.1l2.1-2.1c0.2-0.2,0.2-0.5,0-0.7    c-0.2-0.2-0.5-0.2-0.7,0l-2.9,2.7l2.8,2.8C13.7,38.5,13.7,38.5,13.9,38.5z"></path>
	</g>
	<g>
		<linearGradient id="SVGID_3_" gradientUnits="userSpaceOnUse" x1="12.6496" y1="35.6036" x2="49.0583" y2="35.6036">
			<stop offset="0" style="stop-color:#9600DA"></stop>
			<stop offset="1" style="stop-color:#002BCA"></stop>
		</linearGradient>
		<path class="st4" d="M34.3,43.4c-0.5-0.1-0.9-0.3-0.8-0.9v-14c0-0.5,0.3-0.8,0.8-0.8h9.3c0.5,0,0.8,0.2,0.9,0.7v14.4    c0,0.3-0.3,0.5-0.5,0.5H34.3z M35,42h8V29.4h-8C35,29.4,35,42,35,42z"></path>
		<linearGradient id="SVGID_4_" gradientUnits="userSpaceOnUse" x1="12.6496" y1="35.6043" x2="49.0583" y2="35.6043">
			<stop offset="0" style="stop-color:#9600DA"></stop>
			<stop offset="1" style="stop-color:#002BCA"></stop>
		</linearGradient>
		<path class="st5" d="M18.8,44.8c-0.4,0-0.8-0.4-0.8-0.9V27.3c0-0.5,0.3-0.9,0.8-0.9h11.1c0.5,0,0.8,0.2,0.9,0.7v17    c0,0.3-0.3,0.5-0.5,0.5L18.8,44.8z M19.6,43.3h9.8V28.2h-9.8C19.6,28.2,19.6,43.3,19.6,43.3z"></path>
		<linearGradient id="SVGID_5_" gradientUnits="userSpaceOnUse" x1="12.6496" y1="40.6845" x2="49.0583" y2="40.6845">
			<stop offset="0" style="stop-color:#9600DA"></stop>
			<stop offset="1" style="stop-color:#002BCA"></stop>
		</linearGradient>
		<circle class="st6" cx="22.8" cy="40.7" r="0.9"></circle>
		<linearGradient id="SVGID_6_" gradientUnits="userSpaceOnUse" x1="12.6496" y1="40.6845" x2="49.0583" y2="40.6845">
			<stop offset="0" style="stop-color:#9600DA"></stop>
			<stop offset="1" style="stop-color:#002BCA"></stop>
		</linearGradient>
		<circle class="st7" cx="26.1" cy="40.7" r="0.9"></circle>
	</g>
</g>
</svg>