<?xml version="1.0" encoding="utf-8"?>
<!-- Generator: Adobe Illustrator 23.0.0, SVG Export Plug-In . SVG Version: 6.00 Build 0)  -->
<svg version="1.1" id="Layer_1" xmlns="http://www.w3.org/2000/svg" xmlns:xlink="http://www.w3.org/1999/xlink" x="0px" y="0px"
	 viewBox="0 0 66 70" style="enable-background:new 0 0 66 70;" xml:space="preserve">
<style type="text/css">
	.st0{opacity:0.1;}
	.st1{fill-rule:evenodd;clip-rule:evenodd;fill:#981DFF;}
	.st2{fill:url(#SVGID_1_);}
	.st3{fill:url(#SVGID_2_);}
	.st4{fill:url(#SVGID_3_);}
	.st5{fill:url(#SVGID_4_);}
	.st6{fill:url(#SVGID_5_);}
	.st7{fill:url(#SVGID_6_);}
	.st8{fill:url(#SVGID_7_);}
	.st9{fill:url(#SVGID_8_);}
	.st10{fill:url(#SVGID_9_);}
</style>
<g class="st0">
	<circle id="Oval-2_2_" class="st1" cx="31" cy="34.2" r="31"/>
	<g>
		<circle id="path-4_2_" class="st1" cx="52.7" cy="9.8" r="9.2"/>
	</g>
	<g>
		<g>
			<circle class="st1" cx="52.7" cy="9.8" r="9.2"/>
		</g>
		<circle id="Oval-3-Copy-4_2_" class="st1" cx="64" cy="19.1" r="2"/>
		<circle id="Oval-3-Copy-5_2_" class="st1" cx="42.3" cy="1.5" r="1.5"/>
	</g>
	<g>
		<g>
			<circle class="st1" cx="18.8" cy="60.8" r="9.2"/>
		</g>
	</g>
</g>
<g>
	<linearGradient id="SVGID_1_" gradientUnits="userSpaceOnUse" x1="16.9651" y1="27.2241" x2="58.4945" y2="27.1065">
		<stop  offset="0" style="stop-color:#9600DA"/>
		<stop  offset="1" style="stop-color:#002BCA"/>
	</linearGradient>
	<path class="st2" d="M32.2,24.8h-9.4c-0.3,0-0.6,0.3-0.6,0.6V29c-0.1,0.3,0.2,0.6,0.6,0.6h9.4c0.3,0,0.6-0.3,0.6-0.6v-3.6
		C32.8,25.1,32.5,24.8,32.2,24.8z M31.5,28.3h-8.1V26h8.1V28.3z"/>
	<linearGradient id="SVGID_2_" gradientUnits="userSpaceOnUse" x1="16.9867" y1="34.8535" x2="58.5161" y2="34.7358">
		<stop  offset="0" style="stop-color:#9600DA"/>
		<stop  offset="1" style="stop-color:#002BCA"/>
	</linearGradient>
	<path class="st3" d="M32.2,32.4h-9.4c-0.3,0-0.6,0.3-0.6,0.6v3.6c-0.1,0.3,0.2,0.6,0.6,0.6h9.4c0.3,0,0.6-0.3,0.6-0.6V33
		C32.8,32.7,32.5,32.4,32.2,32.4z M31.5,35.9h-8.1v-2.3h8.1V35.9z"/>
	<linearGradient id="SVGID_3_" gradientUnits="userSpaceOnUse" x1="16.9538" y1="23.233" x2="58.4832" y2="23.1153">
		<stop  offset="0" style="stop-color:#9600DA"/>
		<stop  offset="1" style="stop-color:#002BCA"/>
	</linearGradient>
	<path class="st4" d="M46.5,22.5H46c-0.3,0-0.6,0.3-0.6,0.6c0,0.4,0.2,0.7,0.6,0.7h0.5c0.3,0,0.6-0.3,0.6-0.6
		C47.1,22.9,46.9,22.5,46.5,22.5z"/>
	<linearGradient id="SVGID_4_" gradientUnits="userSpaceOnUse" x1="16.9998" y1="39.4798" x2="58.5292" y2="39.3622">
		<stop  offset="0" style="stop-color:#9600DA"/>
		<stop  offset="1" style="stop-color:#002BCA"/>
	</linearGradient>
	<path class="st5" d="M32.2,38.9h-9.4c-0.3,0-0.6,0.3-0.6,0.6s0.3,0.6,0.6,0.6h9.4c0.3,0,0.6-0.3,0.6-0.6S32.5,38.9,32.2,38.9z"/>
	<linearGradient id="SVGID_5_" gradientUnits="userSpaceOnUse" x1="16.9642" y1="26.9258" x2="58.4936" y2="26.8081">
		<stop  offset="0" style="stop-color:#9600DA"/>
		<stop  offset="1" style="stop-color:#002BCA"/>
	</linearGradient>
	<path class="st6" d="M46.2,26.2h-5c-0.3,0-0.6,0.3-0.6,0.6c0,0.4,0.2,0.7,0.6,0.7h5c0.3,0,0.6-0.3,0.6-0.6S46.6,26.2,46.2,26.2z"/>
	<linearGradient id="SVGID_6_" gradientUnits="userSpaceOnUse" x1="16.9724" y1="29.8081" x2="58.5018" y2="29.6905">
		<stop  offset="0" style="stop-color:#9600DA"/>
		<stop  offset="1" style="stop-color:#002BCA"/>
	</linearGradient>
	<path class="st7" d="M46.2,29.1h-5c-0.3,0-0.6,0.3-0.6,0.6c0,0.4,0.2,0.7,0.6,0.7h5c0.3,0,0.6-0.3,0.6-0.6S46.6,29.1,46.2,29.1z"/>
	<linearGradient id="SVGID_7_" gradientUnits="userSpaceOnUse" x1="16.9806" y1="32.6905" x2="58.51" y2="32.5728">
		<stop  offset="0" style="stop-color:#9600DA"/>
		<stop  offset="1" style="stop-color:#002BCA"/>
	</linearGradient>
	<path class="st8" d="M46.2,32h-5c-0.3,0-0.6,0.3-0.6,0.6c0,0.4,0.2,0.7,0.6,0.7h5c0.3,0,0.6-0.3,0.6-0.6S46.6,32,46.2,32z"/>
	<linearGradient id="SVGID_8_" gradientUnits="userSpaceOnUse" x1="16.9887" y1="35.5728" x2="58.5181" y2="35.4551">
		<stop  offset="0" style="stop-color:#9600DA"/>
		<stop  offset="1" style="stop-color:#002BCA"/>
	</linearGradient>
	<path class="st9" d="M46.2,34.8h-5c-0.3,0-0.6,0.3-0.6,0.6c0,0.4,0.2,0.7,0.6,0.7h5c0.3,0,0.6-0.3,0.6-0.6
		C46.8,35.2,46.6,34.8,46.2,34.8z"/>
	<linearGradient id="SVGID_9_" gradientUnits="userSpaceOnUse" x1="16.9862" y1="34.6952" x2="58.5157" y2="34.5776">
		<stop  offset="0" style="stop-color:#9600DA"/>
		<stop  offset="1" style="stop-color:#002BCA"/>
	</linearGradient>
	<path class="st10" d="M49.2,19.9L49.2,19.9H38.3H16.7v0c-0.3,0.1-0.5,0.3-0.5,0.6v27.8c0,0.7,0.5,1.2,1.2,1.2h20.8h10.2h0.7
		c0.3,0,0.6-0.3,0.6-0.6V20.5C49.8,20.2,49.5,19.9,49.2,19.9z M17.4,47.6v-1.2v-1.2V21.1h20.2v27.1H18
		C17.7,48.2,17.4,47.9,17.4,47.6z M38.9,48.2V21.1h9.6v24.1v1.2v1.2c0,0.3-0.3,0.6-0.6,0.6H38.9z"/>
</g>
</svg>
