<?xml version="1.0" encoding="utf-8"?>
<!-- Generator: Adobe Illustrator 23.0.0, SVG Export Plug-In . SVG Version: 6.00 Build 0)  -->
<svg version="1.1" id="Layer_1" xmlns="http://www.w3.org/2000/svg" xmlns:xlink="http://www.w3.org/1999/xlink" x="0px" y="0px"
	 viewBox="0 0 66 70" style="enable-background:new 0 0 66 70;" xml:space="preserve">
<style type="text/css">
	.st0{opacity:0.1;}
	.st1{fill-rule:evenodd;clip-rule:evenodd;fill:#981DFF;}
	.st2{fill:url(#SVGID_1_);}
	.st3{fill:url(#SVGID_2_);}
	.st4{fill:url(#SVGID_3_);}
	.st5{fill:url(#SVGID_4_);}
	.st6{fill:url(#SVGID_5_);}
	.st7{fill:url(#SVGID_6_);}
	.st8{fill:url(#SVGID_7_);}
	.st9{fill:url(#SVGID_8_);}
	.st10{fill:url(#SVGID_9_);}
	.st11{fill:url(#SVGID_10_);}
	.st12{fill:url(#SVGID_11_);}
	.st13{fill:url(#SVGID_12_);}
	.st14{fill:url(#SVGID_13_);}
	.st15{fill:url(#SVGID_14_);}
	.st16{fill:url(#SVGID_15_);}
	.st17{fill:url(#SVGID_16_);}
	.st18{fill:url(#SVGID_17_);}
	.st19{fill:url(#SVGID_18_);}
	.st20{fill:url(#SVGID_19_);}
	.st21{fill:url(#SVGID_20_);}
</style>
<g class="st0">
	<circle id="Oval-2_2_" class="st1" cx="31" cy="34.2" r="31"/>
	<g>
		<circle id="path-4_2_" class="st1" cx="52.7" cy="9.8" r="9.2"/>
	</g>
	<g>
		<g>
			<circle class="st1" cx="52.7" cy="9.8" r="9.2"/>
		</g>
		<circle id="Oval-3-Copy-4_2_" class="st1" cx="64" cy="19.1" r="2"/>
		<circle id="Oval-3-Copy-5_2_" class="st1" cx="42.3" cy="1.5" r="1.5"/>
	</g>
	<g>
		<g>
			<circle class="st1" cx="18.8" cy="60.8" r="9.2"/>
		</g>
	</g>
</g>
<g>
	<linearGradient id="SVGID_1_" gradientUnits="userSpaceOnUse" x1="17.4468" y1="35.0002" x2="48.8534" y2="35.0002">
		<stop  offset="0" style="stop-color:#9600DA"/>
		<stop  offset="1" style="stop-color:#002BCA"/>
	</linearGradient>
	<path class="st2" d="M47.9,19.5H18.1c-0.3,0-0.5,0.2-0.5,0.5v29.9c0,0.3,0.2,0.5,0.5,0.5h29.9c0.3,0,0.5-0.2,0.5-0.5V20.1
		C48.5,19.8,48.2,19.5,47.9,19.5L47.9,19.5z M18.6,20.6h28.9v3.1H18.6V20.6z M47.4,49.4H18.6V24.7h28.9V49.4z M47.4,49.4"/>
	<linearGradient id="SVGID_2_" gradientUnits="userSpaceOnUse" x1="17.4468" y1="22.1131" x2="48.8534" y2="22.1131">
		<stop  offset="0" style="stop-color:#9600DA"/>
		<stop  offset="1" style="stop-color:#002BCA"/>
	</linearGradient>
	<rect x="19.6" y="21.6" class="st3" width="1" height="1"/>
	<linearGradient id="SVGID_3_" gradientUnits="userSpaceOnUse" x1="17.4468" y1="22.1131" x2="48.8534" y2="22.1131">
		<stop  offset="0" style="stop-color:#9600DA"/>
		<stop  offset="1" style="stop-color:#002BCA"/>
	</linearGradient>
	<rect x="21.7" y="21.6" class="st4" width="1" height="1"/>
	<linearGradient id="SVGID_4_" gradientUnits="userSpaceOnUse" x1="17.4468" y1="22.1131" x2="48.8534" y2="22.1131">
		<stop  offset="0" style="stop-color:#9600DA"/>
		<stop  offset="1" style="stop-color:#002BCA"/>
	</linearGradient>
	<rect x="23.7" y="21.6" class="st5" width="1" height="1"/>
	<linearGradient id="SVGID_5_" gradientUnits="userSpaceOnUse" x1="17.4468" y1="42.217" x2="48.8534" y2="42.217">
		<stop  offset="0" style="stop-color:#9600DA"/>
		<stop  offset="1" style="stop-color:#002BCA"/>
	</linearGradient>
	<path class="st6" d="M35.6,44.8h-5.2c-0.3,0-0.5-0.2-0.5-0.5v-4.1c0-0.3,0.2-0.5,0.5-0.5h5.2c0.3,0,0.5,0.2,0.5,0.5v4.1
		C36.1,44.6,35.9,44.8,35.6,44.8L35.6,44.8z M30.9,43.8h4.1v-3.1h-4.1V43.8z M30.9,43.8"/>
	<linearGradient id="SVGID_6_" gradientUnits="userSpaceOnUse" x1="17.4468" y1="31.9073" x2="48.8534" y2="31.9073">
		<stop  offset="0" style="stop-color:#9600DA"/>
		<stop  offset="1" style="stop-color:#002BCA"/>
	</linearGradient>
	<path class="st7" d="M35.6,34.5h-5.2c-0.3,0-0.5-0.2-0.5-0.5v-4.1c0-0.3,0.2-0.5,0.5-0.5h5.2c0.3,0,0.5,0.2,0.5,0.5V34
		C36.1,34.3,35.9,34.5,35.6,34.5L35.6,34.5z M30.9,33.5h4.1v-3.1h-4.1V33.5z M30.9,33.5"/>
	<linearGradient id="SVGID_7_" gradientUnits="userSpaceOnUse" x1="17.4468" y1="42.217" x2="48.8534" y2="42.217">
		<stop  offset="0" style="stop-color:#9600DA"/>
		<stop  offset="1" style="stop-color:#002BCA"/>
	</linearGradient>
	<path class="st8" d="M43.8,44.8h-5.2c-0.3,0-0.5-0.2-0.5-0.5v-4.1c0-0.3,0.2-0.5,0.5-0.5h5.2c0.3,0,0.5,0.2,0.5,0.5v4.1
		C44.3,44.6,44.1,44.8,43.8,44.8L43.8,44.8z M39.2,43.8h4.1v-3.1h-4.1V43.8z M39.2,43.8"/>
	<linearGradient id="SVGID_8_" gradientUnits="userSpaceOnUse" x1="17.4468" y1="31.9073" x2="48.8534" y2="31.9073">
		<stop  offset="0" style="stop-color:#9600DA"/>
		<stop  offset="1" style="stop-color:#002BCA"/>
	</linearGradient>
	<path class="st9" d="M43.8,34.5h-5.2c-0.3,0-0.5-0.2-0.5-0.5v-4.1c0-0.3,0.2-0.5,0.5-0.5h5.2c0.3,0,0.5,0.2,0.5,0.5V34
		C44.3,34.3,44.1,34.5,43.8,34.5L43.8,34.5z M39.2,33.5h4.1v-3.1h-4.1V33.5z M39.2,33.5"/>
	<linearGradient id="SVGID_9_" gradientUnits="userSpaceOnUse" x1="17.4468" y1="42.217" x2="48.8534" y2="42.217">
		<stop  offset="0" style="stop-color:#9600DA"/>
		<stop  offset="1" style="stop-color:#002BCA"/>
	</linearGradient>
	<path class="st10" d="M27.3,44.8h-5.2c-0.3,0-0.5-0.2-0.5-0.5v-4.1c0-0.3,0.2-0.5,0.5-0.5h5.2c0.3,0,0.5,0.2,0.5,0.5v4.1
		C27.8,44.6,27.6,44.8,27.3,44.8L27.3,44.8z M22.7,43.8h4.1v-3.1h-4.1V43.8z M22.7,43.8"/>
	<g>
		<linearGradient id="SVGID_10_" gradientUnits="userSpaceOnUse" x1="17.4355" y1="35" x2="48.8421" y2="35">
			<stop  offset="0" style="stop-color:#9600DA"/>
			<stop  offset="1" style="stop-color:#002BCA"/>
		</linearGradient>
		<path class="st11" d="M47.9,19.4H18.1c-0.3,0-0.6,0.3-0.6,0.6v29.9c0,0.3,0.3,0.6,0.6,0.6h29.9c0.3,0,0.6-0.3,0.6-0.6V20.1
			C48.6,19.7,48.3,19.4,47.9,19.4z M47.3,49.3H18.7V24.8h28.7V49.3z M47.3,23.6H18.7v-2.9h28.7V23.6z"/>
		<linearGradient id="SVGID_11_" gradientUnits="userSpaceOnUse" x1="17.4468" y1="22.113" x2="48.8534" y2="22.113">
			<stop  offset="0" style="stop-color:#9600DA"/>
			<stop  offset="1" style="stop-color:#002BCA"/>
		</linearGradient>
		<rect x="19.5" y="21.5" class="st12" width="1.2" height="1.2"/>
		<linearGradient id="SVGID_12_" gradientUnits="userSpaceOnUse" x1="17.4468" y1="22.113" x2="48.8534" y2="22.113">
			<stop  offset="0" style="stop-color:#9600DA"/>
			<stop  offset="1" style="stop-color:#002BCA"/>
		</linearGradient>
		<rect x="21.6" y="21.5" class="st13" width="1.2" height="1.2"/>
		<linearGradient id="SVGID_13_" gradientUnits="userSpaceOnUse" x1="17.4468" y1="22.113" x2="48.8534" y2="22.113">
			<stop  offset="0" style="stop-color:#9600DA"/>
			<stop  offset="1" style="stop-color:#002BCA"/>
		</linearGradient>
		<rect x="23.6" y="21.5" class="st14" width="1.2" height="1.2"/>
		<linearGradient id="SVGID_14_" gradientUnits="userSpaceOnUse" x1="17.4468" y1="42.2173" x2="48.8534" y2="42.2173">
			<stop  offset="0" style="stop-color:#9600DA"/>
			<stop  offset="1" style="stop-color:#002BCA"/>
		</linearGradient>
		<path class="st15" d="M30.4,44.9h5.2c0.3,0,0.6-0.3,0.6-0.6v-4.1c0-0.3-0.3-0.6-0.6-0.6h-5.2c-0.3,0-0.6,0.3-0.6,0.6v4.1
			C29.8,44.6,30.1,44.9,30.4,44.9z M31,40.8H35v2.9H31V40.8z"/>
		<linearGradient id="SVGID_15_" gradientUnits="userSpaceOnUse" x1="17.4468" y1="31.9075" x2="48.8534" y2="31.9075">
			<stop  offset="0" style="stop-color:#9600DA"/>
			<stop  offset="1" style="stop-color:#002BCA"/>
		</linearGradient>
		<path class="st16" d="M30.4,34.6h5.2c0.3,0,0.6-0.3,0.6-0.6v-4.1c0-0.3-0.3-0.6-0.6-0.6h-5.2c-0.3,0-0.6,0.3-0.6,0.6V34
			C29.8,34.3,30.1,34.6,30.4,34.6z M31,30.5H35v2.9H31V30.5z"/>
		<linearGradient id="SVGID_16_" gradientUnits="userSpaceOnUse" x1="17.4468" y1="42.2173" x2="48.8534" y2="42.2173">
			<stop  offset="0" style="stop-color:#9600DA"/>
			<stop  offset="1" style="stop-color:#002BCA"/>
		</linearGradient>
		<path class="st17" d="M38.7,44.9h5.2c0.3,0,0.6-0.3,0.6-0.6v-4.1c0-0.3-0.3-0.6-0.6-0.6h-5.2c-0.3,0-0.6,0.3-0.6,0.6v4.1
			C38.1,44.6,38.3,44.9,38.7,44.9z M39.3,40.8h3.9v2.9h-3.9V40.8z"/>
		<linearGradient id="SVGID_17_" gradientUnits="userSpaceOnUse" x1="17.4468" y1="31.9075" x2="48.8534" y2="31.9075">
			<stop  offset="0" style="stop-color:#9600DA"/>
			<stop  offset="1" style="stop-color:#002BCA"/>
		</linearGradient>
		<path class="st18" d="M38.7,34.6h5.2c0.3,0,0.6-0.3,0.6-0.6v-4.1c0-0.3-0.3-0.6-0.6-0.6h-5.2c-0.3,0-0.6,0.3-0.6,0.6V34
			C38.1,34.3,38.3,34.6,38.7,34.6z M39.3,30.5h3.9v2.9h-3.9V30.5z"/>
		<linearGradient id="SVGID_18_" gradientUnits="userSpaceOnUse" x1="17.4468" y1="42.2173" x2="48.8534" y2="42.2173">
			<stop  offset="0" style="stop-color:#9600DA"/>
			<stop  offset="1" style="stop-color:#002BCA"/>
		</linearGradient>
		<path class="st19" d="M22.2,44.9h5.2c0.3,0,0.6-0.3,0.6-0.6v-4.1c0-0.3-0.3-0.6-0.6-0.6h-5.2c-0.3,0-0.6,0.3-0.6,0.6v4.1
			C21.6,44.6,21.8,44.9,22.2,44.9z M22.8,40.8h3.9v2.9h-3.9V40.8z"/>
		<linearGradient id="SVGID_19_" gradientUnits="userSpaceOnUse" x1="17.4468" y1="31.9075" x2="48.8534" y2="31.9075">
			<stop  offset="0" style="stop-color:#9600DA"/>
			<stop  offset="1" style="stop-color:#002BCA"/>
		</linearGradient>
		<path class="st20" d="M22.2,34.6h5.2c0.3,0,0.6-0.3,0.6-0.6v-4.1c0-0.3-0.3-0.6-0.6-0.6h-5.2c-0.3,0-0.6,0.3-0.6,0.6V34
			C21.6,34.3,21.8,34.6,22.2,34.6z M22.8,30.5h3.9v2.9h-3.9V30.5z"/>
	</g>
	<linearGradient id="SVGID_20_" gradientUnits="userSpaceOnUse" x1="17.4468" y1="31.9073" x2="48.8534" y2="31.9073">
		<stop  offset="0" style="stop-color:#9600DA"/>
		<stop  offset="1" style="stop-color:#002BCA"/>
	</linearGradient>
	<path class="st21" d="M27.3,34.5h-5.2c-0.3,0-0.5-0.2-0.5-0.5v-4.1c0-0.3,0.2-0.5,0.5-0.5h5.2c0.3,0,0.5,0.2,0.5,0.5V34
		C27.8,34.3,27.6,34.5,27.3,34.5L27.3,34.5z M22.7,33.5h4.1v-3.1h-4.1V33.5z M22.7,33.5"/>
</g>
</svg>
