<?xml version="1.0" encoding="utf-8"?>
<!-- Generator: Adobe Illustrator 23.0.0, SVG Export Plug-In . SVG Version: 6.00 Build 0)  -->
<svg version="1.1" id="Layer_1" xmlns="http://www.w3.org/2000/svg" xmlns:xlink="http://www.w3.org/1999/xlink" x="0px" y="0px"
	 viewBox="0 0 66 70" style="enable-background:new 0 0 66 70;" xml:space="preserve">
<style type="text/css">
	.st0{opacity:0.1;}
	.st1{fill-rule:evenodd;clip-rule:evenodd;fill:#981DFF;}
	.st2{fill:url(#SVGID_1_);}
	.st3{fill:url(#SVGID_2_);}
	.st4{fill:url(#SVGID_3_);}
	.st5{fill:url(#SVGID_4_);}
	.st6{fill:url(#SVGID_5_);}
	.st7{fill:url(#SVGID_6_);}
	.st8{fill:url(#SVGID_7_);}
	.st9{fill:url(#SVGID_8_);}
	.st10{fill:url(#SVGID_9_);}
	.st11{fill:url(#SVGID_10_);}
	.st12{fill:url(#SVGID_11_);}
	.st13{fill:url(#SVGID_12_);}
	.st14{fill:url(#SVGID_13_);}
</style>
<g class="st0">
	<circle id="Oval-2_2_" class="st1" cx="31" cy="34.2" r="31"/>
	<g>
		<circle id="path-4_2_" class="st1" cx="52.7" cy="9.8" r="9.2"/>
	</g>
	<g>
		<g>
			<circle class="st1" cx="52.7" cy="9.8" r="9.2"/>
		</g>
		<circle id="Oval-3-Copy-4_2_" class="st1" cx="64" cy="19.1" r="2"/>
		<circle id="Oval-3-Copy-5_2_" class="st1" cx="42.3" cy="1.5" r="1.5"/>
	</g>
	<g>
		<g>
			<circle class="st1" cx="18.8" cy="60.8" r="9.2"/>
		</g>
	</g>
</g>
<g>
	<g>
		<g>
			
				<linearGradient id="SVGID_1_" gradientUnits="userSpaceOnUse" x1="16.3892" y1="39.4" x2="61.2569" y2="39.4" gradientTransform="matrix(1 0 0 -1 0 71)">
				<stop  offset="0" style="stop-color:#9600DA"/>
				<stop  offset="1" style="stop-color:#002BCA"/>
			</linearGradient>
			<path class="st2" d="M34.4,32.1h5.8c0.3,0,0.5-0.2,0.5-0.5s-0.2-0.5-0.5-0.5h-5.8c-0.3,0-0.5,0.2-0.5,0.5S34.2,32.1,34.4,32.1z"
				/>
			
				<linearGradient id="SVGID_2_" gradientUnits="userSpaceOnUse" x1="16.3892" y1="36.9" x2="61.2569" y2="36.9" gradientTransform="matrix(1 0 0 -1 0 71)">
				<stop  offset="0" style="stop-color:#9600DA"/>
				<stop  offset="1" style="stop-color:#002BCA"/>
			</linearGradient>
			<path class="st3" d="M44,33.6h-7.7c-0.3,0-0.5,0.2-0.5,0.5s0.2,0.5,0.5,0.5H44c0.3,0,0.5-0.2,0.5-0.5S44.3,33.6,44,33.6z"/>
			
				<linearGradient id="SVGID_3_" gradientUnits="userSpaceOnUse" x1="16.3892" y1="36.9328" x2="61.2569" y2="36.9328" gradientTransform="matrix(1 0 0 -1 0 71)">
				<stop  offset="0" style="stop-color:#9600DA"/>
				<stop  offset="1" style="stop-color:#002BCA"/>
			</linearGradient>
			<path class="st4" d="M34.1,33.7C34,33.9,34,34,34,34.1s0.1,0.2,0.1,0.3c0.1,0.1,0.2,0.1,0.3,0.1s0.2-0.1,0.3-0.1
				c0.1-0.1,0.1-0.2,0.1-0.3s-0.1-0.2-0.1-0.3C34.6,33.6,34.3,33.6,34.1,33.7z"/>
		</g>
		
			<linearGradient id="SVGID_4_" gradientUnits="userSpaceOnUse" x1="16.3892" y1="37.9" x2="61.2569" y2="37.9" gradientTransform="matrix(1 0 0 -1 0 71)">
			<stop  offset="0" style="stop-color:#9600DA"/>
			<stop  offset="1" style="stop-color:#002BCA"/>
		</linearGradient>
		<path class="st5" d="M29.1,30.7L29.1,30.7c-1.3,0-2.4,1.1-2.4,2.4c0,1.3,1.1,2.4,2.4,2.4l0,0c1.3,0,2.4-1.1,2.4-2.4
			C31.6,31.8,30.5,30.7,29.1,30.7z M29.1,34.6L29.1,34.6c-0.8,0-1.4-0.6-1.4-1.4c0-0.8,0.6-1.4,1.4-1.4l0,0c0.8,0,1.4,0.6,1.4,1.4
			C30.6,33.9,29.9,34.6,29.1,34.6z"/>
	</g>
	<g>
		<g>
			
				<linearGradient id="SVGID_5_" gradientUnits="userSpaceOnUse" x1="16.3892" y1="30.1" x2="61.2569" y2="30.1" gradientTransform="matrix(1 0 0 -1 0 71)">
				<stop  offset="0" style="stop-color:#9600DA"/>
				<stop  offset="1" style="stop-color:#002BCA"/>
			</linearGradient>
			<path class="st6" d="M34.4,41.4h5.2c0.3,0,0.5-0.2,0.5-0.5s-0.2-0.5-0.5-0.5h-5.2c-0.3,0-0.5,0.2-0.5,0.5S34.2,41.4,34.4,41.4z"
				/>
			
				<linearGradient id="SVGID_6_" gradientUnits="userSpaceOnUse" x1="16.3892" y1="27.6" x2="61.2569" y2="27.6" gradientTransform="matrix(1 0 0 -1 0 71)">
				<stop  offset="0" style="stop-color:#9600DA"/>
				<stop  offset="1" style="stop-color:#002BCA"/>
			</linearGradient>
			<path class="st7" d="M44,42.9h-7.7c-0.3,0-0.5,0.2-0.5,0.5s0.2,0.5,0.5,0.5H44c0.3,0,0.5-0.2,0.5-0.5S44.3,42.9,44,42.9z"/>
			
				<linearGradient id="SVGID_7_" gradientUnits="userSpaceOnUse" x1="16.3892" y1="27.6328" x2="61.2569" y2="27.6328" gradientTransform="matrix(1 0 0 -1 0 71)">
				<stop  offset="0" style="stop-color:#9600DA"/>
				<stop  offset="1" style="stop-color:#002BCA"/>
			</linearGradient>
			<path class="st8" d="M34.1,43C34,43.2,34,43.3,34,43.4c0,0.1,0.1,0.2,0.1,0.3c0.1,0.1,0.2,0.1,0.3,0.1s0.2-0.1,0.3-0.1
				c0.1-0.1,0.1-0.2,0.1-0.3s-0.1-0.2-0.1-0.3C34.6,42.9,34.3,42.9,34.1,43z"/>
		</g>
		
			<linearGradient id="SVGID_8_" gradientUnits="userSpaceOnUse" x1="16.3892" y1="28.6" x2="61.2569" y2="28.6" gradientTransform="matrix(1 0 0 -1 0 71)">
			<stop  offset="0" style="stop-color:#9600DA"/>
			<stop  offset="1" style="stop-color:#002BCA"/>
		</linearGradient>
		<path class="st9" d="M29.1,40L29.1,40c-1.3,0-2.4,1.1-2.4,2.4c0,1.3,1.1,2.4,2.4,2.4l0,0c1.3,0,2.4-1.1,2.4-2.4S30.5,40,29.1,40z
			 M29.1,43.9L29.1,43.9c-0.8,0-1.4-0.6-1.4-1.4c0-0.8,0.6-1.4,1.4-1.4l0,0c0.8,0,1.4,0.6,1.4,1.4C30.6,43.2,29.9,43.9,29.1,43.9z"
			/>
	</g>
	
		<linearGradient id="SVGID_9_" gradientUnits="userSpaceOnUse" x1="16.3892" y1="38.3" x2="61.2569" y2="38.3" gradientTransform="matrix(1 0 0 -1 0 71)">
		<stop  offset="0" style="stop-color:#9600DA"/>
		<stop  offset="1" style="stop-color:#002BCA"/>
	</linearGradient>
	<path class="st10" d="M18.4,46.3h1.2v-1.2h-1.2c-0.6,0-1.2-0.5-1.2-1.2V21.4c0-0.6,0.5-1.2,1.2-1.2h24.9c0.6,0,1.2,0.5,1.2,1.2v1.2
		h1.2v-1.2c0-1.3-1-2.3-2.3-2.3h-25c-1.3,0-2.3,1-2.3,2.3V44C16.2,45.2,17.2,46.3,18.4,46.3z"/>
	
		<linearGradient id="SVGID_10_" gradientUnits="userSpaceOnUse" x1="16.3892" y1="33.8" x2="61.2569" y2="33.8" gradientTransform="matrix(1 0 0 -1 0 71)">
		<stop  offset="0" style="stop-color:#9600DA"/>
		<stop  offset="1" style="stop-color:#002BCA"/>
	</linearGradient>
	<path class="st11" d="M20.7,48.5c0,1.3,1,2.3,2.3,2.3h24.9c1.3,0,2.3-1,2.3-2.3V25.9c0-1.3-1-2.3-2.3-2.3H23c-1.3,0-2.3,1-2.3,2.3
		V48.5z M21.9,25.9c0-0.6,0.5-1.2,1.2-1.2H48c0.6,0,1.2,0.5,1.2,1.2v22.6c0,0.6-0.5,1.2-1.2,1.2H23c-0.6,0-1.2-0.5-1.2-1.2
		L21.9,25.9L21.9,25.9z"/>
	
		<linearGradient id="SVGID_11_" gradientUnits="userSpaceOnUse" x1="16.3892" y1="49" x2="61.2569" y2="49" gradientTransform="matrix(1 0 0 -1 0 71)">
		<stop  offset="0" style="stop-color:#9600DA"/>
		<stop  offset="1" style="stop-color:#002BCA"/>
	</linearGradient>
	<path class="st12" d="M19.5,21.4h1.2v1.2h-1.2V21.4z"/>
	
		<linearGradient id="SVGID_12_" gradientUnits="userSpaceOnUse" x1="16.3892" y1="49" x2="61.2569" y2="49" gradientTransform="matrix(1 0 0 -1 0 71)">
		<stop  offset="0" style="stop-color:#9600DA"/>
		<stop  offset="1" style="stop-color:#002BCA"/>
	</linearGradient>
	<path class="st13" d="M21.8,21.4H23v1.2h-1.2V21.4z"/>
	
		<linearGradient id="SVGID_13_" gradientUnits="userSpaceOnUse" x1="16.3892" y1="49" x2="61.2569" y2="49" gradientTransform="matrix(1 0 0 -1 0 71)">
		<stop  offset="0" style="stop-color:#9600DA"/>
		<stop  offset="1" style="stop-color:#002BCA"/>
	</linearGradient>
	<path class="st14" d="M24.1,21.4h1.2v1.2h-1.2V21.4z"/>
</g>
</svg>
