<?xml version="1.0" encoding="utf-8"?>
<!-- Generator: Adobe Illustrator 23.0.0, SVG Export Plug-In . SVG Version: 6.00 Build 0)  -->
<svg version="1.1" id="Layer_1" xmlns="http://www.w3.org/2000/svg" xmlns:xlink="http://www.w3.org/1999/xlink" x="0px" y="0px"
	 viewBox="0 0 66 70" style="enable-background:new 0 0 66 70;" xml:space="preserve">
<style type="text/css">
	.st0{opacity:0.1;}
	.st1{fill-rule:evenodd;clip-rule:evenodd;fill:#981DFF;}
	.st2{fill:url(#SVGID_1_);}
</style>
<g class="st0">
	<circle id="Oval-2_1_" class="st1" cx="31" cy="34.2" r="31"/>
	<g>
		<circle id="path-4_1_" class="st1" cx="52.7" cy="9.8" r="9.2"/>
	</g>
	<g>
		<g>
			<circle class="st1" cx="52.7" cy="9.8" r="9.2"/>
		</g>
		<circle id="Oval-3-Copy-4_1_" class="st1" cx="64" cy="19.1" r="2"/>
		<circle id="Oval-3-Copy-5_1_" class="st1" cx="42.3" cy="1.5" r="1.5"/>
	</g>
	<g>
		<g>
			<circle class="st1" cx="18.8" cy="60.8" r="9.2"/>
		</g>
	</g>
</g>
<linearGradient id="SVGID_1_" gradientUnits="userSpaceOnUse" x1="17.6436" y1="35" x2="55.019" y2="35">
	<stop  offset="0" style="stop-color:#9600DA"/>
	<stop  offset="1" style="stop-color:#002BCA"/>
</linearGradient>
<path class="st2" d="M47.7,21.3H18.3c-0.3,0-0.5,0.2-0.5,0.5v26.4c0,0.3,0.2,0.5,0.5,0.5h29.4c0.3,0,0.5-0.2,0.5-0.5V21.8
	C48.3,21.5,48,21.3,47.7,21.3z M47.2,28.5v19.1h-7.3V28.5H47.2z M18.8,27.4v-5.1H22v5.1H18.8z M23.1,27.4v-5.1h7.3v5.1H23.1z
	 M30.4,28.5V29v18.7h-7.3V28.5H30.4z M31.5,27.4v-5.1h7.3v5.1H31.5z M38.8,29.4v18.3h-7.3V28.5h7.3L38.8,29.4L38.8,29.4z M39.9,27.4
	v-5.1h7.3v5.1H39.9z M18.8,47.6V28.5H22v19.1H18.8z"/>
</svg>
