<svg xmlns="http://www.w3.org/2000/svg" width="24" height="24" viewBox="0 0 24 24" fill="none">
<g clip-path="url(#clip0_104_201)">
<path fill-rule="evenodd" clip-rule="evenodd" d="M17.0233 6.33301H7.34795C6.28572 6.40353 5.57769 6.58338 5.01313 7.04547C4.09027 7.80246 3.83311 9.08711 3.31881 11.6575L2.65068 14.9982C1.91163 18.6945 1.5422 20.5422 2.54401 21.7644C3.5459 22.9867 5.43169 22.9868 9.20104 22.9868H15.1679C18.9384 22.9868 20.8231 22.9867 21.8261 21.7644C22.828 20.541 22.4584 18.6931 21.7192 14.9972L21.0482 11.642C20.5348 9.08193 20.278 7.80093 19.3558 7.04547C18.7924 6.58261 18.0848 6.40335 17.0233 6.33301Z" fill="#a7aaad"/>
<path d="M8.00977 5.97609H9.67959V5.17457C9.67959 4.51027 9.94349 3.87318 10.4132 3.40345C10.8829 2.93372 11.52 2.66983 12.1843 2.66983C12.8486 2.66983 13.4857 2.93372 13.9555 3.40345C14.4252 3.87318 14.6891 4.51027 14.6891 5.17457V5.97609H16.3589V5.17457C16.3589 4.0674 15.9191 3.00559 15.1362 2.2227C14.3533 1.43982 13.2915 1 12.1843 1C11.0772 1 10.0154 1.43982 9.23247 2.2227C8.44959 3.00559 8.00977 4.0674 8.00977 5.17457V5.97609Z" fill="#a7aaad"/>
<rect opacity="0.5" x="5.44141" y="12.6846" width="2.12438" height="4.24876" rx="0.606818" fill="white"/>
<rect opacity="0.5" x="16.5957" y="12.6846" width="2.12438" height="4.24876" rx="0.606818" fill="white"/>
<rect x="8.89355" y="11.623" width="6.37315" height="6.37314" rx="1.21364" fill="white"/>
<path d="M12.5817 13.4154L13.1009 12.8962C13.1786 12.8184 13.3047 12.8184 13.3825 12.8962L14.2275 13.7412C14.3053 13.819 14.3053 13.9451 14.2275 14.0228L13.475 14.7753V16.6019C13.475 16.7119 13.3859 16.8011 13.2759 16.8011H10.8859C10.7759 16.8011 10.6868 16.7119 10.6868 16.6019V14.7753L9.93431 14.0228C9.85653 13.9451 9.85653 13.819 9.93431 13.7412L10.7793 12.8962C10.8571 12.8184 10.9832 12.8184 11.0609 12.8962L11.5801 13.4154H12.5817Z" fill="#a7aaad"/>
<rect width="24" height="24" fill="transparent" style="mix-blend-mode:saturation"/>
</g>
<defs>
<clipPath id="clip0_104_201">
<rect width="24" height="24" fill="white"/>
</clipPath>
</defs>
</svg>