<?xml version="1.0" encoding="utf-8"?>
<!-- Generator: Adobe Illustrator 23.0.0, SVG Export Plug-In . SVG Version: 6.00 Build 0)  -->
<svg version="1.1" id="Layer_1" xmlns="http://www.w3.org/2000/svg" xmlns:xlink="http://www.w3.org/1999/xlink" x="0px" y="0px"
	 viewBox="0 0 66 70" style="enable-background:new 0 0 66 70;" xml:space="preserve">
<style type="text/css">
	.st0{opacity:0.1;}
	.st1{fill-rule:evenodd;clip-rule:evenodd;fill:#981DFF;}
	.st2{fill:url(#SVGID_1_);}
	.st3{fill:url(#SVGID_2_);}
	.st4{fill:url(#SVGID_3_);}
	.st5{fill:url(#SVGID_4_);}
	.st6{fill:url(#SVGID_5_);}
	.st7{fill:url(#SVGID_6_);}
	.st8{fill:url(#SVGID_7_);}
	.st9{fill:url(#SVGID_8_);}
	.st10{fill:url(#SVGID_9_);}
</style>
<g class="st0">
	<circle id="Oval-2_2_" class="st1" cx="31" cy="34.2" r="31"/>
	<g>
		<circle id="path-4_2_" class="st1" cx="52.7" cy="9.8" r="9.2"/>
	</g>
	<g>
		<g>
			<circle class="st1" cx="52.7" cy="9.8" r="9.2"/>
		</g>
		<circle id="Oval-3-Copy-4_2_" class="st1" cx="64" cy="19.1" r="2"/>
		<circle id="Oval-3-Copy-5_2_" class="st1" cx="42.3" cy="1.5" r="1.5"/>
	</g>
	<g>
		<g>
			<circle class="st1" cx="18.8" cy="60.8" r="9.2"/>
		</g>
	</g>
</g>
<g>
	<linearGradient id="SVGID_1_" gradientUnits="userSpaceOnUse" x1="14" y1="37.7984" x2="56.2388" y2="37.7984">
		<stop  offset="0" style="stop-color:#9600DA"/>
		<stop  offset="1" style="stop-color:#002BCA"/>
	</linearGradient>
	<path class="st2" d="M49.7,28.4h-7.3l-2.7-3.3c-0.2-0.3-0.6-0.4-1-0.4h-4.4c-0.4,0-0.7,0.2-1,0.4l-0.9,1.1l-0.9-1.1
		c-0.2-0.3-0.6-0.4-1-0.4h-4.4c-0.4,0-0.7,0.2-1,0.4l-0.9,1.1l-0.8-1.1c-0.2-0.3-0.6-0.4-1-0.4H18c-0.4,0-0.7,0.2-1,0.4l-2.6,3.2
		C14.1,28.6,14,29,14,29.5v19.6c0,1,0.9,1.9,1.9,1.9h33.8c1,0,1.9-0.9,1.9-1.9V30.3C51.5,29.2,50.7,28.4,49.7,28.4z M34.3,25.9h4.4
		l2.1,2.5h-6.5l-1-1.3L34.3,25.9z M26.2,25.9h4.4l2.1,2.5h-6.5l-1-1.3L26.2,25.9z M50.3,49c0,0.4-0.3,0.6-0.6,0.6H15.8
		c-0.4,0-0.6-0.3-0.6-0.6V29.5c0-0.1,0.1-0.3,0.1-0.4l0,0l2.6-3.2h4.4l2.7,3.3c0.2,0.3,0.6,0.4,1,0.4h23.6c0.4,0,0.6,0.3,0.6,0.6V49
		z"/>
	<linearGradient id="SVGID_2_" gradientUnits="userSpaceOnUse" x1="14.0104" y1="39.6619" x2="56.2492" y2="39.6619">
		<stop  offset="0" style="stop-color:#9600DA"/>
		<stop  offset="1" style="stop-color:#002BCA"/>
	</linearGradient>
	<path class="st3" d="M28.4,33.4h-10c-0.7,0-1.2,0.5-1.3,1.3v10c0,0.7,0.5,1.2,1.3,1.3h10c0.4,0,0.7-0.2,0.9-0.4c0,0,0,0,0-0.1
		c0.2-0.2,0.3-0.5,0.3-0.8V34.6C29.6,33.9,29,33.4,28.4,33.4z M24.9,44.7l-0.5-1l1.5-2.7l2,3.7C27.9,44.7,24.9,44.7,24.9,44.7z
		 M28.4,34.6v8.3L27,40.3c-0.2-0.4-0.7-0.7-1.1-0.7c-0.5,0-0.9,0.2-1.1,0.7l-1,2l-1.8-3.2c-0.2-0.4-0.7-0.7-1.1-0.7
		c-0.5,0-0.9,0.2-1.1,0.7l-1.4,2.6v-7.1H28.4z M18.3,44.3l2.5-4.6l2.7,4.9h-5.2V44.3z"/>
	<linearGradient id="SVGID_3_" gradientUnits="userSpaceOnUse" x1="14.0104" y1="34.5909" x2="56.2492" y2="34.5909">
		<stop  offset="0" style="stop-color:#9600DA"/>
		<stop  offset="1" style="stop-color:#002BCA"/>
	</linearGradient>
	<path class="st4" d="M45.3,34H32.1c-0.4,0-0.6,0.3-0.6,0.6c0,0.4,0.3,0.6,0.6,0.6h13.1c0.4,0,0.6-0.3,0.6-0.6
		C45.9,34.3,45.6,34,45.3,34z"/>
	<linearGradient id="SVGID_4_" gradientUnits="userSpaceOnUse" x1="14.0104" y1="37.0958" x2="56.2492" y2="37.0958">
		<stop  offset="0" style="stop-color:#9600DA"/>
		<stop  offset="1" style="stop-color:#002BCA"/>
	</linearGradient>
	<path class="st5" d="M44,36.5H32.1c-0.4,0-0.6,0.3-0.6,0.6c0,0.4,0.3,0.6,0.6,0.6H44c0.4,0,0.6-0.3,0.6-0.6
		C44.7,36.8,44.4,36.5,44,36.5z"/>
	<linearGradient id="SVGID_5_" gradientUnits="userSpaceOnUse" x1="14.0104" y1="39.6008" x2="56.2492" y2="39.6008">
		<stop  offset="0" style="stop-color:#9600DA"/>
		<stop  offset="1" style="stop-color:#002BCA"/>
	</linearGradient>
	<path class="st6" d="M42.1,39h-10c-0.4,0-0.6,0.3-0.6,0.6c0,0.4,0.3,0.6,0.6,0.6h10c0.4,0,0.6-0.3,0.6-0.6
		C42.8,39.3,42.5,39,42.1,39z"/>
	<linearGradient id="SVGID_6_" gradientUnits="userSpaceOnUse" x1="14.0104" y1="42.1058" x2="56.2492" y2="42.1058">
		<stop  offset="0" style="stop-color:#9600DA"/>
		<stop  offset="1" style="stop-color:#002BCA"/>
	</linearGradient>
	<path class="st7" d="M40.3,41.5h-8.2c-0.4,0-0.6,0.3-0.6,0.6c0,0.4,0.3,0.6,0.6,0.6h8.1c0.4,0,0.6-0.3,0.6-0.6
		C40.9,41.8,40.6,41.5,40.3,41.5z"/>
	<linearGradient id="SVGID_7_" gradientUnits="userSpaceOnUse" x1="14.0104" y1="44.6107" x2="56.2492" y2="44.6107">
		<stop  offset="0" style="stop-color:#9600DA"/>
		<stop  offset="1" style="stop-color:#002BCA"/>
	</linearGradient>
	<path class="st8" d="M38.4,44h-6.3c-0.4,0-0.6,0.3-0.6,0.6c0,0.4,0.3,0.6,0.6,0.6h6.3c0.4,0,0.6-0.3,0.6-0.6
		C39,44.3,38.7,44,38.4,44z"/>
	<linearGradient id="SVGID_8_" gradientUnits="userSpaceOnUse" x1="14.0104" y1="37.0958" x2="56.2492" y2="37.0958">
		<stop  offset="0" style="stop-color:#9600DA"/>
		<stop  offset="1" style="stop-color:#002BCA"/>
	</linearGradient>
	<path class="st9" d="M24,39c1,0,1.9-0.9,1.9-1.9S25,35.2,24,35.2c-1,0-1.9,0.9-1.9,1.9S22.9,39,24,39z M24,36.5
		c0.4,0,0.6,0.3,0.6,0.6c0,0.4-0.3,0.6-0.6,0.6c-0.4,0-0.6-0.3-0.6-0.6C23.3,36.8,23.6,36.5,24,36.5z"/>
	<linearGradient id="SVGID_9_" gradientUnits="userSpaceOnUse" x1="14.0104" y1="21.1496" x2="56.2492" y2="21.1496">
		<stop  offset="0" style="stop-color:#9600DA"/>
		<stop  offset="1" style="stop-color:#002BCA"/>
	</linearGradient>
	<path class="st10" d="M36.5,23.3c0.4,0,0.6-0.3,0.6-0.6v-2.5c0-0.7-0.5-1.2-1.3-1.3H20.2c-0.4,0-0.6,0.3-0.6,0.6
		c0,0.4,0.3,0.6,0.6,0.6h7.5v2.5c0,0.4,0.3,0.6,0.6,0.6c0.4,0,0.6-0.3,0.6-0.6v-2.5h6.9v2.5C35.9,23,36.2,23.3,36.5,23.3z"/>
</g>
</svg>
