<?xml version="1.0" encoding="utf-8"?>
<!-- Generator: Adobe Illustrator 23.0.0, SVG Export Plug-In . SVG Version: 6.00 Build 0)  -->
<svg version="1.1" id="Layer_1" xmlns="http://www.w3.org/2000/svg" xmlns:xlink="http://www.w3.org/1999/xlink" x="0px" y="0px"
	 viewBox="0 0 66 70" style="enable-background:new 0 0 66 70;" xml:space="preserve">
<style type="text/css">
	.st0{opacity:0.1;}
	.st1{fill-rule:evenodd;clip-rule:evenodd;fill:#981DFF;}
	.st2{fill:url(#SVGID_1_);}
	.st3{fill:url(#SVGID_2_);}
	.st4{fill:url(#SVGID_3_);}
	.st5{fill:url(#SVGID_4_);}
	.st6{fill:url(#SVGID_5_);}
	.st7{fill:url(#SVGID_6_);}
	.st8{fill:url(#SVGID_7_);}
</style>
<g class="st0">
	<circle id="Oval-2_2_" class="st1" cx="31" cy="34.2" r="31"/>
	<g>
		<circle id="path-4_2_" class="st1" cx="52.7" cy="9.8" r="9.2"/>
	</g>
	<g>
		<g>
			<circle class="st1" cx="52.7" cy="9.8" r="9.2"/>
		</g>
		<circle id="Oval-3-Copy-4_2_" class="st1" cx="64" cy="19.1" r="2"/>
		<circle id="Oval-3-Copy-5_2_" class="st1" cx="42.3" cy="1.5" r="1.5"/>
	</g>
	<g>
		<g>
			<circle class="st1" cx="18.8" cy="60.8" r="9.2"/>
		</g>
	</g>
</g>
<g>
	<linearGradient id="SVGID_1_" gradientUnits="userSpaceOnUse" x1="14.4008" y1="21.0013" x2="64.7318" y2="26.3257">
		<stop  offset="0" style="stop-color:#9600DA"/>
		<stop  offset="1" style="stop-color:#002BCA"/>
	</linearGradient>
	<path class="st2" d="M50.2,20.2H39c0,0,0,0-0.1,0c-0.4,0-0.6,0.3-0.6,0.7v6.7c0,0,0,0,0,0.1c0,0.4,0.3,0.6,0.7,0.6h11.2
		c0,0,0,0,0.1,0c0.4,0,0.6-0.3,0.6-0.7v-6.7c0,0,0,0,0-0.1C50.9,20.4,50.6,20.2,50.2,20.2z M49.6,26.9h-9.9v-5.4h9.9V26.9z"/>
	<linearGradient id="SVGID_2_" gradientUnits="userSpaceOnUse" x1="12.1542" y1="42.2382" x2="62.4851" y2="47.5626">
		<stop  offset="0" style="stop-color:#9600DA"/>
		<stop  offset="1" style="stop-color:#002BCA"/>
	</linearGradient>
	<path class="st3" d="M50.2,41.6H39c0,0,0,0-0.1,0c-0.4,0-0.6,0.3-0.6,0.7V49c0,0,0,0,0,0.1c0,0.4,0.3,0.6,0.7,0.6h11.2
		c0,0,0,0,0.1,0c0.4,0,0.6-0.3,0.6-0.7v-6.7c0,0,0,0,0-0.1C50.9,41.9,50.6,41.6,50.2,41.6z M49.6,48.4h-9.9V43h9.9V48.4z"/>
	<linearGradient id="SVGID_3_" gradientUnits="userSpaceOnUse" x1="13.1452" y1="32.8709" x2="63.4761" y2="38.1953">
		<stop  offset="0" style="stop-color:#9600DA"/>
		<stop  offset="1" style="stop-color:#002BCA"/>
	</linearGradient>
	<path class="st4" d="M35.5,23.2c-0.4-1.6-1.9-2.6-3.5-2.2c-1.3,0.3-2.3,1.5-2.3,2.8c0,1.4,0.9,2.5,2.2,2.9v5.4
		c-1.6,0.3-2.6,1.9-2.2,3.5c0.2,1.1,1.1,2,2.2,2.2v5.4c-1.3,0.3-2.2,1.5-2.2,2.9c0,1.6,1.3,2.9,2.9,2.9c1.6,0,2.9-1.3,2.9-2.9
		c0-1.4-0.9-2.5-2.3-2.8v-5.4c1.3-0.3,2.3-1.5,2.2-2.9c0-1.4-0.9-2.6-2.2-2.9v-5.4C34.9,26.3,35.9,24.7,35.5,23.2z M34.3,46.1
		c0,0.9-0.7,1.6-1.6,1.6c-0.9,0-1.6-0.7-1.6-1.6c0-0.9,0.7-1.6,1.6-1.6C33.5,44.5,34.2,45.2,34.3,46.1z M34.2,34.9
		c0,0.9-0.7,1.6-1.6,1.6c0,0,0,0,0,0c-0.9,0-1.5-0.7-1.5-1.6c0-0.9,0.7-1.6,1.5-1.6C33.5,33.4,34.2,34.1,34.2,34.9z M32.6,25.4
		c-0.9,0-1.5-0.7-1.5-1.6c0-0.9,0.7-1.6,1.5-1.6c0.9,0,1.6,0.7,1.6,1.6C34.2,24.7,33.5,25.4,32.6,25.4z"/>
	<linearGradient id="SVGID_4_" gradientUnits="userSpaceOnUse" x1="15.4876" y1="21.1813" x2="65.8185" y2="26.5058">
		<stop  offset="0" style="stop-color:#9600DA"/>
		<stop  offset="1" style="stop-color:#002BCA"/>
	</linearGradient>
	<path class="st5" d="M42,24.9h3.9c0.4,0,0.7-0.3,0.7-0.7c0-0.4-0.3-0.7-0.7-0.7H42c-0.4,0-0.7,0.3-0.7,0.7
		C41.3,24.6,41.6,24.9,42,24.9z"/>
	<linearGradient id="SVGID_5_" gradientUnits="userSpaceOnUse" x1="13.0006" y1="34.2378" x2="63.3315" y2="39.5622">
		<stop  offset="0" style="stop-color:#9600DA"/>
		<stop  offset="1" style="stop-color:#002BCA"/>
	</linearGradient>
	<path class="st6" d="M25.9,30.9C25.9,30.9,25.8,30.9,25.9,30.9H13.4c-0.4,0-0.7,0.3-0.7,0.6c0,0,0,0,0,0.1v6.7
		c0,0.4,0.3,0.7,0.6,0.7c0,0,0,0,0.1,0h12.5c0.4,0,0.7-0.3,0.7-0.6c0,0,0,0,0-0.1v-6.7C26.5,31.2,26.2,30.9,25.9,30.9z M25.1,37.6
		H14v-5.4h11.1V37.6z"/>
	<linearGradient id="SVGID_6_" gradientUnits="userSpaceOnUse" x1="11.1312" y1="34.003" x2="61.4621" y2="39.3274">
		<stop  offset="0" style="stop-color:#9600DA"/>
		<stop  offset="1" style="stop-color:#002BCA"/>
	</linearGradient>
	<path class="st7" d="M17.9,35.6h3.9c0.4,0,0.7-0.3,0.7-0.7c0-0.4-0.3-0.7-0.7-0.7h-3.9c-0.4,0-0.7,0.3-0.7,0.7
		C17.3,35.3,17.6,35.6,17.9,35.6z"/>
	<linearGradient id="SVGID_7_" gradientUnits="userSpaceOnUse" x1="13.241" y1="42.4182" x2="63.5719" y2="47.7427">
		<stop  offset="0" style="stop-color:#9600DA"/>
		<stop  offset="1" style="stop-color:#002BCA"/>
	</linearGradient>
	<path class="st8" d="M42,46.3h3.9c0.4,0,0.7-0.3,0.7-0.7S46.2,45,45.9,45H42c-0.4,0-0.7,0.3-0.7,0.7S41.6,46.3,42,46.3z"/>
</g>
</svg>
