<svg width="215" height="39" viewBox="0 0 215 39" fill="none" xmlns="http://www.w3.org/2000/svg">
<path fill-rule="evenodd" clip-rule="evenodd" d="M24.7022 10.6768H12.0702C10.6834 10.7688 9.75897 11.0036 9.02188 11.6069C7.817 12.5953 7.48127 14.2725 6.80979 17.6284L5.93749 21.9899C4.9726 26.8158 4.49027 29.2282 5.79822 30.8239C7.10629 32.4197 9.56835 32.4197 14.4896 32.4197H22.2799C27.2025 32.4197 29.6632 32.4197 30.9727 30.8239C32.2807 29.2266 31.7982 26.8139 30.8332 21.9886L29.957 17.6081C29.2868 14.2657 28.9515 12.5933 27.7476 11.6069C27.012 11.0026 26.0882 10.7686 24.7022 10.6768Z" fill="#5156FC"/>
<path d="M12.9336 10.2116H15.1137V9.16511C15.1137 8.29781 15.4582 7.46603 16.0715 6.85276C16.6848 6.23948 17.5166 5.89495 18.3839 5.89495C19.2512 5.89495 20.0829 6.23948 20.6962 6.85276C21.3095 7.46603 21.654 8.29781 21.654 9.16511V10.2116H23.8341V9.16511C23.8341 7.71961 23.2599 6.33331 22.2378 5.31119C21.2157 4.28907 19.8294 3.71484 18.3839 3.71484C16.9384 3.71484 15.5521 4.28907 14.5299 5.31119C13.5078 6.33331 12.9336 7.71961 12.9336 9.16511V10.2116Z" fill="#FF9B0F"/>
<rect opacity="0.5" x="9.58398" y="18.9717" width="2.77357" height="5.54713" rx="0.693392" fill="white"/>
<rect opacity="0.5" x="24.1445" y="18.9717" width="2.77357" height="5.54713" rx="0.693392" fill="white"/>
<rect x="14.0898" y="17.584" width="8.32071" height="8.3207" rx="1.38678" fill="white"/>
<path d="M18.9037 19.9229L19.5815 19.2451C19.683 19.1436 19.8477 19.1436 19.9492 19.2451L21.0524 20.3483C21.1539 20.4498 21.1539 20.6145 21.0524 20.716L20.07 21.6984V24.0832C20.07 24.2268 19.9536 24.3433 19.8099 24.3433H16.6897C16.5461 24.3433 16.4297 24.2268 16.4297 24.0832V21.6984L15.4473 20.716C15.3457 20.6145 15.3457 20.4498 15.4473 20.3483L16.5504 19.2451C16.652 19.1436 16.8166 19.1436 16.9182 19.2451L17.5959 19.9229H18.9037Z" fill="#5156FC"/>
<path d="M39.8008 30.0761V13.5029H46.0157C47.2889 13.5029 48.3571 13.7403 49.2203 14.2151C50.0889 14.6898 50.7444 15.3426 51.1867 16.1734C51.6345 16.9988 51.8584 17.9375 51.8584 18.9896C51.8584 20.0523 51.6345 20.9965 51.1867 21.8219C50.739 22.6473 50.0781 23.2974 49.2041 23.7721C48.3301 24.2415 47.2538 24.4762 45.9753 24.4762H41.8562V22.008H45.5706C46.3151 22.008 46.9248 21.8785 47.3995 21.6196C47.8743 21.3606 48.2249 21.0046 48.4515 20.5514C48.6835 20.0982 48.7995 19.5776 48.7995 18.9896C48.7995 18.4015 48.6835 17.8836 48.4515 17.4358C48.2249 16.988 47.8716 16.6401 47.3914 16.3919C46.9167 16.1383 46.3043 16.0116 45.5545 16.0116H42.803V30.0761H39.8008Z" fill="black"/>
<path d="M53.8809 30.0761V17.6462H56.7213V19.7179H56.8508C57.0774 19.0003 57.4658 18.4474 58.0161 18.0589C58.5718 17.6651 59.2057 17.4682 59.9178 17.4682C60.0797 17.4682 60.2604 17.4763 60.46 17.4925C60.665 17.5033 60.835 17.5221 60.9698 17.5491V20.2439C60.8458 20.2007 60.6488 20.1629 60.3791 20.1306C60.1147 20.0928 59.8585 20.0739 59.6103 20.0739C59.0762 20.0739 58.5961 20.1899 58.1699 20.4219C57.7491 20.6485 57.4173 20.9641 57.1745 21.3687C56.9317 21.7733 56.8104 22.24 56.8104 22.7687V30.0761H53.8809Z" fill="black"/>
<path d="M67.3703 30.3189C66.1565 30.3189 65.1045 30.0518 64.2143 29.5177C63.3241 28.9836 62.6336 28.2364 62.1427 27.2761C61.6571 26.3158 61.4143 25.1937 61.4143 23.9097C61.4143 22.6257 61.6571 21.5009 62.1427 20.5352C62.6336 19.5695 63.3241 18.8196 64.2143 18.2855C65.1045 17.7514 66.1565 17.4844 67.3703 17.4844C68.5842 17.4844 69.6362 17.7514 70.5264 18.2855C71.4165 18.8196 72.1044 19.5695 72.5899 20.5352C73.0808 21.5009 73.3263 22.6257 73.3263 23.9097C73.3263 25.1937 73.0808 26.3158 72.5899 27.2761C72.1044 28.2364 71.4165 28.9836 70.5264 29.5177C69.6362 30.0518 68.5842 30.3189 67.3703 30.3189ZM67.3865 27.9721C68.0447 27.9721 68.595 27.7913 69.0374 27.4299C69.4797 27.063 69.8088 26.5721 70.0246 25.9571C70.2458 25.3421 70.3564 24.6569 70.3564 23.9016C70.3564 23.1409 70.2458 22.4531 70.0246 21.8381C69.8088 21.2176 69.4797 20.724 69.0374 20.3572C68.595 19.9903 68.0447 19.8069 67.3865 19.8069C66.7121 19.8069 66.1511 19.9903 65.7033 20.3572C65.2609 20.724 64.9291 21.2176 64.7079 21.8381C64.4921 22.4531 64.3842 23.1409 64.3842 23.9016C64.3842 24.6569 64.4921 25.3421 64.7079 25.9571C64.9291 26.5721 65.2609 27.063 65.7033 27.4299C66.1511 27.7913 66.7121 27.9721 67.3865 27.9721Z" fill="black"/>
<path d="M79.9696 30.2946C78.9931 30.2946 78.1191 30.0437 77.3476 29.542C76.5762 29.0403 75.9665 28.312 75.5188 27.3571C75.071 26.4022 74.8471 25.2423 74.8471 23.8773C74.8471 22.4962 75.0737 21.3309 75.5269 20.3814C75.9854 19.4265 76.6031 18.7063 77.38 18.2208C78.1569 17.7298 79.0228 17.4844 79.9777 17.4844C80.706 17.4844 81.3048 17.6085 81.7742 17.8566C82.2435 18.0994 82.6158 18.3934 82.8909 18.7387C83.1661 19.0786 83.3792 19.3996 83.5302 19.7017H83.6516V13.5029H86.5891V30.0761H83.7082V28.1177H83.5302C83.3792 28.4199 83.1607 28.7408 82.8747 29.0807C82.5888 29.4152 82.2112 29.7011 81.7418 29.9385C81.2724 30.1759 80.6817 30.2946 79.9696 30.2946ZM80.7869 27.8912C81.4073 27.8912 81.936 27.7239 82.373 27.3894C82.81 27.0495 83.1418 26.5775 83.3684 25.9733C83.5949 25.369 83.7082 24.665 83.7082 23.8612C83.7082 23.0573 83.5949 22.3587 83.3684 21.7652C83.1472 21.1718 82.8181 20.7105 82.3811 20.3814C81.9495 20.0523 81.4181 19.8878 80.7869 19.8878C80.1341 19.8878 79.5892 20.0577 79.1522 20.3976C78.7153 20.7375 78.3862 21.2069 78.165 21.8057C77.9438 22.4045 77.8332 23.0897 77.8332 23.8612C77.8332 24.638 77.9438 25.3313 78.165 25.9409C78.3916 26.5451 78.7233 27.0226 79.1603 27.3732C79.6027 27.7185 80.1449 27.8912 80.7869 27.8912Z" fill="black"/>
<path d="M97.1774 24.8484V17.6462H100.107V30.0761H97.2664V27.8669H97.137C96.8564 28.5628 96.3951 29.132 95.7532 29.5744C95.1166 30.0167 94.3316 30.2379 93.3983 30.2379C92.5836 30.2379 91.8634 30.0572 91.2376 29.6957C90.6172 29.3289 90.1317 28.7975 89.781 28.1016C89.4303 27.4002 89.255 26.5532 89.255 25.5605V17.6462H92.1844V25.1074C92.1844 25.895 92.4002 26.5208 92.8318 26.9848C93.2634 27.4488 93.8299 27.6807 94.5312 27.6807C94.9628 27.6807 95.3809 27.5755 95.7855 27.3651C96.1901 27.1547 96.5219 26.8418 96.7809 26.4264C97.0452 26.0056 97.1774 25.4796 97.1774 24.8484Z" fill="black"/>
<path d="M108.085 30.3189C106.845 30.3189 105.779 30.0464 104.889 29.5015C104.004 28.9566 103.322 28.2041 102.841 27.2438C102.367 26.2781 102.129 25.1667 102.129 23.9097C102.129 22.6473 102.372 21.5333 102.858 20.5676C103.343 19.5965 104.028 18.8412 104.913 18.3017C105.803 17.7568 106.855 17.4844 108.069 17.4844C109.078 17.4844 109.971 17.6705 110.748 18.0427C111.53 18.4096 112.153 18.9302 112.617 19.6046C113.081 20.2735 113.345 21.0558 113.41 21.9514H110.61C110.497 21.3525 110.227 20.8535 109.801 20.4543C109.38 20.0497 108.816 19.8473 108.11 19.8473C107.511 19.8473 106.985 20.0092 106.532 20.3329C106.078 20.6512 105.725 21.1098 105.472 21.7086C105.223 22.3074 105.099 23.0249 105.099 23.8612C105.099 24.7082 105.223 25.4365 105.472 26.0461C105.72 26.6503 106.068 27.117 106.515 27.4461C106.969 27.7698 107.5 27.9316 108.11 27.9316C108.541 27.9316 108.927 27.8507 109.267 27.6888C109.612 27.5216 109.901 27.2815 110.133 26.9686C110.365 26.6557 110.524 26.2754 110.61 25.8276H113.41C113.34 26.707 113.081 27.4865 112.633 28.1663C112.185 28.8407 111.576 29.3694 110.804 29.7524C110.033 30.13 109.127 30.3189 108.085 30.3189Z" fill="black"/>
<path d="M121.567 17.6462V19.9121H114.421V17.6462H121.567ZM116.185 14.6682H119.115V26.3374C119.115 26.7312 119.174 27.0334 119.293 27.2438C119.417 27.4488 119.579 27.589 119.778 27.6646C119.978 27.7401 120.199 27.7779 120.442 27.7779C120.625 27.7779 120.792 27.7644 120.944 27.7374C121.1 27.7104 121.219 27.6861 121.3 27.6646L121.793 29.9547C121.637 30.0087 121.413 30.068 121.122 30.1327C120.836 30.1975 120.485 30.2352 120.07 30.246C119.336 30.2676 118.675 30.157 118.087 29.9142C117.499 29.6661 117.032 29.283 116.687 28.7651C116.347 28.2472 116.18 27.5998 116.185 26.823V14.6682Z" fill="black"/>
<path d="M129 29.5732V13H132.002V27.0564H139.302V29.5732H129Z" fill="#5156FC"/>
<path d="M144.899 29.824C144.111 29.824 143.402 29.6838 142.771 29.4032C142.145 29.1173 141.648 28.6965 141.282 28.1408C140.92 27.5851 140.739 26.9 140.739 26.0854C140.739 25.384 140.869 24.8041 141.128 24.3455C141.387 23.8869 141.74 23.5201 142.188 23.2449C142.636 22.9698 143.14 22.7621 143.701 22.6218C144.268 22.4762 144.853 22.371 145.457 22.3062C146.186 22.2307 146.776 22.1633 147.23 22.1039C147.683 22.0392 148.012 21.9421 148.217 21.8126C148.427 21.6777 148.532 21.47 148.532 21.1895V21.1409C148.532 20.5313 148.352 20.0592 147.99 19.7248C147.629 19.3903 147.108 19.223 146.428 19.223C145.711 19.223 145.142 19.3795 144.721 19.6924C144.305 20.0053 144.025 20.3748 143.879 20.801L141.144 20.4126C141.36 19.6573 141.716 19.0261 142.212 18.519C142.709 18.0065 143.315 17.6234 144.033 17.3699C144.751 17.1109 145.544 16.9814 146.412 16.9814C147.011 16.9814 147.607 17.0516 148.201 17.1918C148.794 17.3321 149.336 17.5641 149.827 17.8878C150.318 18.2061 150.712 18.6404 151.009 19.1907C151.311 19.7409 151.462 20.4288 151.462 21.2542V29.5732H148.646V27.8657H148.549C148.371 28.2109 148.12 28.5346 147.796 28.8368C147.478 29.1335 147.076 29.3735 146.59 29.557C146.11 29.735 145.546 29.824 144.899 29.824ZM145.66 27.6715C146.248 27.6715 146.757 27.5555 147.189 27.3235C147.621 27.0861 147.952 26.7732 148.184 26.3848C148.422 25.9963 148.54 25.5728 148.54 25.1143V23.6496C148.449 23.7251 148.292 23.7952 148.071 23.86C147.855 23.9247 147.613 23.9813 147.343 24.0299C147.073 24.0784 146.806 24.1216 146.542 24.1594C146.277 24.1971 146.048 24.2295 145.854 24.2565C145.417 24.3158 145.026 24.4129 144.68 24.5478C144.335 24.6827 144.063 24.8715 143.863 25.1143C143.663 25.3516 143.564 25.6592 143.564 26.0368C143.564 26.5763 143.761 26.9836 144.154 27.2587C144.548 27.5339 145.05 27.6715 145.66 27.6715Z" fill="#5156FC"/>
<path d="M155.327 34.2344C154.928 34.2344 154.559 34.202 154.219 34.1373C153.884 34.0779 153.617 34.0078 153.418 33.9268L154.097 31.6448C154.524 31.7689 154.904 31.8282 155.238 31.8228C155.573 31.8174 155.867 31.7122 156.12 31.5072C156.379 31.3076 156.598 30.9731 156.776 30.5038L157.027 29.8321L152.519 17.1433H155.627L158.491 26.5304H158.621L161.494 17.1433H164.609L159.633 31.0783C159.401 31.7365 159.093 32.3003 158.71 32.7696C158.327 33.2444 157.858 33.6059 157.302 33.854C156.752 34.1076 156.093 34.2344 155.327 34.2344Z" fill="#5156FC"/>
<path d="M171.18 29.8159C169.966 29.8159 168.914 29.5489 168.024 29.0148C167.134 28.4807 166.443 27.7335 165.952 26.7732C165.467 25.8129 165.224 24.6908 165.224 23.4068C165.224 22.1228 165.467 20.998 165.952 20.0323C166.443 19.0666 167.134 18.3167 168.024 17.7826C168.914 17.2485 169.966 16.9814 171.18 16.9814C172.394 16.9814 173.446 17.2485 174.336 17.7826C175.226 18.3167 175.914 19.0666 176.399 20.0323C176.89 20.998 177.136 22.1228 177.136 23.4068C177.136 24.6908 176.89 25.8129 176.399 26.7732C175.914 27.7335 175.226 28.4807 174.336 29.0148C173.446 29.5489 172.394 29.8159 171.18 29.8159ZM171.196 27.4691C171.854 27.4691 172.404 27.2884 172.847 26.927C173.289 26.5601 173.618 26.0692 173.834 25.4541C174.055 24.8391 174.166 24.154 174.166 23.3987C174.166 22.638 174.055 21.9502 173.834 21.3351C173.618 20.7147 173.289 20.2211 172.847 19.8542C172.404 19.4874 171.854 19.304 171.196 19.304C170.522 19.304 169.96 19.4874 169.513 19.8542C169.07 20.2211 168.739 20.7147 168.517 21.3351C168.302 21.9502 168.194 22.638 168.194 23.3987C168.194 24.154 168.302 24.8391 168.517 25.4541C168.739 26.0692 169.07 26.5601 169.513 26.927C169.96 27.2884 170.522 27.4691 171.196 27.4691Z" fill="#5156FC"/>
<path d="M187.089 24.3455V17.1433H190.018V29.5732H187.178V27.3639H187.048C186.768 28.0599 186.306 28.6291 185.665 29.0714C185.028 29.5138 184.243 29.735 183.31 29.735C182.495 29.735 181.775 29.5543 181.149 29.1928C180.529 28.826 180.043 28.2946 179.692 27.5986C179.342 26.8973 179.166 26.0503 179.166 25.0576V17.1433H182.096V24.6044C182.096 25.3921 182.312 26.0179 182.743 26.4819C183.175 26.9458 183.741 27.1778 184.443 27.1778C184.874 27.1778 185.292 27.0726 185.697 26.8622C186.101 26.6518 186.433 26.3389 186.692 25.9235C186.957 25.5027 187.089 24.9767 187.089 24.3455Z" fill="#5156FC"/>
<path d="M198.782 17.1433V19.4092H191.636V17.1433H198.782ZM193.4 14.1653H196.33V25.8345C196.33 26.2283 196.389 26.5304 196.508 26.7408C196.632 26.9458 196.794 27.0861 196.993 27.1616C197.193 27.2372 197.414 27.2749 197.657 27.2749C197.84 27.2749 198.007 27.2614 198.159 27.2345C198.315 27.2075 198.434 27.1832 198.515 27.1616L199.008 29.4518C198.852 29.5057 198.628 29.5651 198.337 29.6298C198.051 29.6945 197.7 29.7323 197.285 29.7431C196.551 29.7647 195.89 29.6541 195.302 29.4113C194.714 29.1631 194.247 28.7801 193.902 28.2622C193.562 27.7443 193.395 27.0969 193.4 26.32V14.1653Z" fill="#5156FC"/>
<path d="M210.422 20.4288L207.751 20.7201C207.676 20.4504 207.544 20.1968 207.355 19.9594C207.172 19.7221 206.923 19.5305 206.61 19.3849C206.298 19.2392 205.915 19.1664 205.461 19.1664C204.852 19.1664 204.339 19.2986 203.924 19.5629C203.514 19.8273 203.311 20.1698 203.317 20.5906C203.311 20.9521 203.444 21.2461 203.713 21.4727C203.989 21.6993 204.442 21.8854 205.073 22.0311L207.193 22.4842C208.369 22.7378 209.243 23.1397 209.815 23.69C210.392 24.2403 210.684 24.9605 210.689 25.8507C210.684 26.6329 210.454 27.3235 210.001 27.9223C209.553 28.5158 208.93 28.9797 208.132 29.3142C207.333 29.6487 206.416 29.8159 205.38 29.8159C203.859 29.8159 202.634 29.4976 201.706 28.861C200.779 28.219 200.226 27.3262 200.048 26.1825L202.904 25.9073C203.034 26.4684 203.309 26.8919 203.73 27.1778C204.15 27.4637 204.698 27.6067 205.372 27.6067C206.068 27.6067 206.627 27.4637 207.047 27.1778C207.474 26.8919 207.687 26.5385 207.687 26.1177C207.687 25.7617 207.549 25.4676 207.274 25.2357C207.004 25.0037 206.583 24.8256 206.012 24.7016L203.891 24.2565C202.699 24.0083 201.817 23.5902 201.245 23.0022C200.673 22.4087 200.39 21.6588 200.396 20.7525C200.39 19.9864 200.598 19.3228 201.019 18.7618C201.445 18.1953 202.036 17.7583 202.791 17.4508C203.552 17.1379 204.428 16.9814 205.421 16.9814C206.877 16.9814 208.024 17.2917 208.86 17.9121C209.702 18.5325 210.222 19.3714 210.422 20.4288Z" fill="#5156FC"/>
</svg>
